<?xml version="1.0" encoding="UTF-8" standalone="no"?>
<!-- Creator: CorelDRAW X8 -->

<svg
   xmlns:dc="http://purl.org/dc/elements/1.1/"
   xmlns:cc="http://creativecommons.org/ns#"
   xmlns:rdf="http://www.w3.org/1999/02/22-rdf-syntax-ns#"
   xmlns:svg="http://www.w3.org/2000/svg"
   xmlns="http://www.w3.org/2000/svg"
   xmlns:sodipodi="http://sodipodi.sourceforge.net/DTD/sodipodi-0.dtd"
   xmlns:inkscape="http://www.inkscape.org/namespaces/inkscape"
   xml:space="preserve"
   width="36"
   height="36"
   version="1.1"
   style="clip-rule:evenodd;fill-rule:evenodd;image-rendering:optimizeQuality;shape-rendering:geometricPrecision;text-rendering:geometricPrecision"
   viewBox="0 0 952.49998 952.50001"
   id="svg12"
   sodipodi:docname="algorithm.svg"
   inkscape:version="0.92.4 (5da689c313, 2019-01-14)"><metadata
   id="metadata16"><rdf:RDF><cc:Work
       rdf:about=""><dc:format>image/svg+xml</dc:format><dc:type
         rdf:resource="http://purl.org/dc/dcmitype/StillImage" /><dc:title></dc:title></cc:Work></rdf:RDF></metadata><sodipodi:namedview
   pagecolor="#ffffff"
   bordercolor="#666666"
   borderopacity="1"
   objecttolerance="10"
   gridtolerance="10"
   guidetolerance="10"
   inkscape:pageopacity="0"
   inkscape:pageshadow="2"
   inkscape:window-width="640"
   inkscape:window-height="480"
   id="namedview14"
   showgrid="false"
   units="px"
   inkscape:zoom="6.9144444"
   inkscape:cx="30.523853"
   inkscape:cy="20.852462"
   inkscape:window-x="0"
   inkscape:window-y="0"
   inkscape:window-maximized="0"
   inkscape:current-layer="svg12" />
 <defs
   id="defs4">
  <style
   type="text/css"
   id="style2">
   <![CDATA[
    .str0 {stroke:#2B2A29;stroke-width:20}
    .fil0 {fill:#FEFEFE}
    .fil1 {fill:#E31E24}
   ]]>
  </style>
 </defs>
 <g
   id="Warstwa_x0020_1"
   transform="matrix(0.28301483,0,0,0.25539361,-986.13313,-359.45075)">
  <metadata
   id="CorelCorpID_0Corel-Layer" />
  <polygon
   class="fil0 str0"
   points="5950,4612 5178,5049 4405,4612 3633,4175 3633,3302 3633,2429 4405,1992 5178,1555 5950,1992 6723,2429 6723,3302 6723,4175 "
   id="polygon7"
   style="fill:#fefefe;stroke:#2b2a29;stroke-width:20" />
  <path
   class="fil1"
   d="m 5861,3484 c 6,9 12,16 19,27 l 106,177 c 47,91 142,283 100,401 -47,130 -274,41 -351,10 -35,-14 -89,-44 -120,-59 -63,-31 -97,-59 -149,-89 -23,-14 -132,-95 -141,-97 7,-14 15,-22 23,-33 l 115,-167 c 13,-20 11,-23 27,-29 l 128,-44 c 37,-12 204,-77 243,-97 z m -1279,238 c 1,-21 49,-146 60,-172 l 68,-162 137,144 c 24,24 45,46 69,70 6,6 10,10 17,16 14,14 39,30 55,54 l -96,16 c -83,12 -169,23 -254,30 z m 780,-57 c -19,35 -71,102 -96,139 -17,-9 -104,-81 -109,-89 15,0 36,-7 51,-11 19,-5 32,-8 50,-13 z m 0,0 z m 185,-142 z m 0,0 c 2,-10 27,-50 35,-64 l 73,-132 c 12,-24 22,-46 34,-68 11,8 82,101 96,118 l 29,44 -65,27 c -57,25 -113,43 -167,64 -11,5 -22,10 -35,11 z m -1048,202 -162,-7 c -160,-12 -459,-74 -290,-289 6,-7 9,-9 14,-16 62,-80 189,-160 279,-214 l 156,-79 c 6,5 14,16 19,24 l 139,178 -82,195 c -7,16 -13,34 -20,50 z m 248,-417 c 4,-4 1,-1 5,-7 3,-4 4,-7 6,-11 31,-64 87,-170 121,-226 8,-14 16,-26 23,-40 7,-13 16,-25 24,-39 33,-55 18,-39 69,-56 22,-8 291,-80 304,-77 9,6 12,12 21,19 75,63 168,165 236,233 l 80,92 -72,137 c -12,24 -25,45 -37,68 -12,23 -26,44 -39,67 -13,23 -26,43 -40,66 -23,38 -17,28 -63,42 -53,17 -112,32 -166,46 l -129,29 c -16,1 -63,-52 -80,-67 -1,0 -2,-1 -2,-1 l -187,-190 c -19,-22 -61,-66 -74,-85 z m 89,-327 c -2,11 -28,50 -35,64 l -37,66 c -6,12 -11,20 -17,32 l -53,103 c -8,-6 -25,-28 -32,-38 l -80,-102 c -5,-8 -11,-13 -14,-22 9,-2 25,-10 33,-14 l 99,-40 c 23,-9 44,-17 67,-26 z m 0,0 z m 185,-142 z m 651,278 -277,-285 c 14,-1 32,-5 47,-8 62,-11 242,-35 303,-38 l 56,-3 c -3,41 -88,239 -110,293 -4,8 -6,12 -10,20 -4,8 -5,14 -9,21 z m -651,-278 c 19,-35 71,-101 96,-139 14,8 101,78 109,89 -16,2 -35,8 -51,12 z m 803,-132 c -147,0 -295,24 -437,48 -99,17 -48,20 -141,-51 -13,-10 -24,-21 -38,-32 -15,-11 -26,-21 -41,-31 3,-13 89,-114 101,-127 37,-38 93,-104 130,-134 l 86,-76 c 26,-20 49,-37 77,-56 47,-32 122,-77 194,-77 163,0 124,296 104,396 -5,25 -26,122 -35,140 z m -717,-116 c -10,-3 -26,-17 -35,-24 l -112,-77 c -13,-9 -25,-16 -38,-24 -51,-34 -103,-64 -158,-91 -15,-7 -26,-14 -41,-21 -114,-52 -308,-131 -432,-50 -7,5 -23,18 -29,24 -16,20 -29,37 -39,63 -38,112 12,276 58,362 21,-14 38,-31 66,-33 -2,-21 -30,-78 -37,-105 -16,-55 -35,-139 -13,-200 47,-130 272,-42 354,-9 53,22 105,53 155,79 63,33 123,77 181,117 24,15 46,36 70,49 -7,13 -14,21 -23,33 l -124,182 c -13,18 -40,21 -62,28 l -124,44 c -14,6 -27,9 -41,15 -53,22 -111,41 -161,68 l -40,-60 c -22,15 -37,33 -66,40 l 33,53 c -13,7 -27,13 -42,21 -15,8 -26,15 -40,22 l -158,93 c -70,43 -136,95 -192,156 -63,67 -135,190 -74,287 97,154 375,168 533,168 -1,11 -7,26 -10,37 -3,13 -5,24 -8,38 -29,124 -59,331 10,441 17,27 31,45 57,62 70,46 159,33 233,1 23,-10 74,-43 91,-47 -14,-21 -35,-32 -43,-63 -15,4 -23,12 -37,19 -76,38 -182,82 -236,-14 -59,-104 -15,-331 15,-442 2,-7 2,-12 4,-19 5,-15 9,-15 23,-17 l 50,-2 c 18,-2 49,-3 66,-4 43,-2 85,-8 128,-14 38,-6 83,-12 120,-18 22,-4 40,-7 59,-11 93,-19 55,-12 139,53 25,20 52,45 79,63 -5,17 -33,46 -45,60 l -76,86 c -19,26 -61,61 -77,85 27,14 35,40 53,53 13,-9 115,-122 130,-141 l 51,-61 c 8,-10 20,-21 24,-33 10,3 9,5 18,11 l 54,39 c 12,9 25,18 37,26 73,52 152,100 233,140 15,8 27,14 42,21 116,54 349,146 460,26 125,-134 9,-377 -52,-500 l -37,-66 c -28,-56 -69,-106 -98,-160 82,-43 164,-84 241,-136 68,-45 135,-94 192,-155 7,-8 7,-11 14,-18 59,-64 115,-182 60,-270 -20,-31 -43,-55 -74,-74 -30,-19 -67,-39 -102,-47 0,34 -5,53 -17,76 31,7 66,27 89,44 91,68 38,154 -15,222 -81,104 -272,215 -392,275 -10,5 -32,15 -42,17 l -138,-176 c -7,-8 -15,-18 -21,-25 5,-21 13,-31 21,-49 44,-102 110,-248 135,-354 35,0 58,3 92,3 0,-26 -5,-28 1,-56 3,-9 10,-19 -1,-23 -5,-2 -59,0 -69,0 35,-149 111,-461 -45,-577 -132,-97 -351,46 -448,136 l -40,33 c -12,11 -22,23 -35,35 -31,29 -80,75 -104,107 l -97,111 c -10,12 -27,27 -31,42 z"
   id="path9"
   inkscape:connector-curvature="0"
   style="fill:#e31e24" />
 </g>
</svg>