<?xml version="1.0" encoding="UTF-8" standalone="no"?>
<!-- Creator: CorelDRAW X8 -->

<svg
   xmlns:dc="http://purl.org/dc/elements/1.1/"
   xmlns:cc="http://creativecommons.org/ns#"
   xmlns:rdf="http://www.w3.org/1999/02/22-rdf-syntax-ns#"
   xmlns:svg="http://www.w3.org/2000/svg"
   xmlns="http://www.w3.org/2000/svg"
   xmlns:sodipodi="http://sodipodi.sourceforge.net/DTD/sodipodi-0.dtd"
   xmlns:inkscape="http://www.inkscape.org/namespaces/inkscape"
   xml:space="preserve"
   width="36"
   height="36"
   version="1.1"
   style="clip-rule:evenodd;fill-rule:evenodd;image-rendering:optimizeQuality;shape-rendering:geometricPrecision;text-rendering:geometricPrecision"
   viewBox="0 0 952.50003 952.50001"
   id="svg17"
   sodipodi:docname="comments.svg"
   inkscape:version="0.92.4 (5da689c313, 2019-01-14)"><metadata
   id="metadata21"><rdf:RDF><cc:Work
       rdf:about=""><dc:format>image/svg+xml</dc:format><dc:type
         rdf:resource="http://purl.org/dc/dcmitype/StillImage" /><dc:title></dc:title></cc:Work></rdf:RDF></metadata><sodipodi:namedview
   pagecolor="#ffffff"
   bordercolor="#666666"
   borderopacity="1"
   objecttolerance="10"
   gridtolerance="10"
   guidetolerance="10"
   inkscape:pageopacity="0"
   inkscape:pageshadow="2"
   inkscape:window-width="640"
   inkscape:window-height="480"
   id="namedview19"
   showgrid="false"
   units="px"
   inkscape:zoom="4.8892505"
   inkscape:cx="14.960781"
   inkscape:cy="25.184722"
   inkscape:window-x="0"
   inkscape:window-y="0"
   inkscape:window-maximized="0"
   inkscape:current-layer="Warstwa_x0020_1" />
 <defs
   id="defs4">
  <style
   type="text/css"
   id="style2">
   <![CDATA[
    .str0 {stroke:#2B2A29;stroke-width:20}
    .fil0 {fill:#FEFEFE}
    .fil1 {fill:#E31E24}
   ]]>
  </style>
 </defs>
 <g
   id="Warstwa_x0020_1"
   transform="matrix(0.22150273,0,0,0.18648752,-715.79713,-130.47733)">
  <metadata
   id="CorelCorpID_0Corel-Layer" />
  <polygon
   class="fil0 str0"
   points="7354,4382 6377,4934 5399,5487 4422,4934 3444,4382 3444,3277 3444,2172 4422,1619 5399,1067 6377,1619 7354,2172 7354,3277 "
   id="polygon7"
   style="fill:#fefefe;stroke:#2b2a29;stroke-width:20"
   transform="matrix(1,0,0,1.0612243,0,-210.04228)" />
  <g
   id="_1917063902128"
   transform="matrix(0.81859499,0,0,0.81859499,1023.2097,532.33326)">
   <g
   id="g13">
    <path
   class="fil1"
   d="M 5974,4009 H 4898 v -129 c 0,-65 -77,-123 -155,-74 l -374,257 c -15,11 -31,21 -47,33 -33,24 -220,146 -233,160 -35,35 -37,102 23,141 l 628,436 c 71,52 158,0 158,-72 v -128 h 1111 c 93,0 196,-21 278,-49 105,-36 191,-89 278,-157 56,-44 116,-114 159,-171 91,-122 169,-319 169,-488 v -775 c 0,-40 -16,-88 -30,-117 -7,-16 -18,-33 -28,-45 -152,-201 -449,-158 -543,64 -28,67 -23,123 -23,214 v 595 c 0,47 -2,73 -14,109 -9,28 -23,56 -40,78 -56,75 -132,118 -241,118 z"
   id="path9"
   inkscape:connector-curvature="0"
   style="fill:#e31e24" />
    <path
   class="fil1"
   d="m 5750,1873 v 128 H 4638 c -135,0 -238,33 -355,80 -88,36 -190,111 -259,180 -65,65 -97,104 -144,182 -65,109 -125,275 -125,422 v 775 c 0,150 144,292 304,292 137,0 244,-72 295,-191 29,-66 25,-122 25,-213 v -477 c 0,-151 -19,-264 108,-365 43,-35 104,-61 180,-61 h 1083 v 128 c 0,66 79,124 153,74 l 94,-64 c 107,-71 219,-153 327,-224 l 139,-95 c 17,-11 30,-21 47,-32 45,-30 72,-46 72,-101 0,-60 -59,-80 -113,-121 -15,-11 -31,-22 -47,-32 l -187,-130 c -88,-64 -191,-130 -280,-194 -32,-22 -70,-54 -106,-54 -54,0 -99,40 -99,93 z"
   id="path11"
   inkscape:connector-curvature="0"
   style="fill:#e31e24" />
   </g>
  </g>
 </g>
</svg>