<?xml version="1.0" encoding="UTF-8" standalone="no"?>
<!-- Creator: CorelDRAW X8 -->

<svg
   xmlns:dc="http://purl.org/dc/elements/1.1/"
   xmlns:cc="http://creativecommons.org/ns#"
   xmlns:rdf="http://www.w3.org/1999/02/22-rdf-syntax-ns#"
   xmlns:svg="http://www.w3.org/2000/svg"
   xmlns="http://www.w3.org/2000/svg"
   xmlns:sodipodi="http://sodipodi.sourceforge.net/DTD/sodipodi-0.dtd"
   xmlns:inkscape="http://www.inkscape.org/namespaces/inkscape"
   xml:space="preserve"
   width="36"
   height="36"
   version="1.1"
   style="clip-rule:evenodd;fill-rule:evenodd;image-rendering:optimizeQuality;shape-rendering:geometricPrecision;text-rendering:geometricPrecision"
   viewBox="0 0 952.49998 952.50001"
   id="svg26"
   sodipodi:docname="contact.svg"
   inkscape:version="0.92.4 (5da689c313, 2019-01-14)"><metadata
   id="metadata30"><rdf:RDF><cc:Work
       rdf:about=""><dc:format>image/svg+xml</dc:format><dc:type
         rdf:resource="http://purl.org/dc/dcmitype/StillImage" /><dc:title></dc:title></cc:Work></rdf:RDF></metadata><sodipodi:namedview
   pagecolor="#ffffff"
   bordercolor="#666666"
   borderopacity="1"
   objecttolerance="10"
   gridtolerance="10"
   guidetolerance="10"
   inkscape:pageopacity="0"
   inkscape:pageshadow="2"
   inkscape:window-width="1042"
   inkscape:window-height="742"
   id="namedview28"
   showgrid="false"
   units="px"
   inkscape:zoom="9.7785011"
   inkscape:cx="13.175435"
   inkscape:cy="20.587836"
   inkscape:window-x="0"
   inkscape:window-y="0"
   inkscape:window-maximized="0"
   inkscape:current-layer="svg26" />
 <defs
   id="defs4">
  <style
   type="text/css"
   id="style2">
   <![CDATA[
    .str0 {stroke:#2B2A29;stroke-width:20}
    .fil0 {fill:#FEFEFE}
    .fil1 {fill:#E31E24}
    .fil3 {fill:#F6F6F6}
    .fil2 {fill:#F7F7F7}
   ]]>
  </style>
 </defs>
 <g
   id="Warstwa_x0020_1"
   transform="matrix(0.24245429,0,0,0.2159932,-819.8968,-182.0598)">
  <metadata
   id="CorelCorpID_0Corel-Layer" />
  <polygon
   class="fil0 str0"
   points="4413,1463 5355,931 6296,1463 7237,1995 7237,3059 7237,4123 6296,4655 5355,5187 4413,4655 3472,4123 3472,3059 3472,1995 "
   id="polygon7"
   style="fill:#fefefe;stroke:#2b2a29;stroke-width:20" />
  <g
   id="_1916801247664">
   <path
   class="fil1"
   d="m 5304,3851 c -25,-105 122,-138 149,-45 14,48 -17,88 -54,96 -47,11 -87,-16 -95,-51 z m 383,-935 c 14,7 97,77 119,93 17,13 13,14 13,41 v 373 c 0,68 4,149 0,215 -1,16 -12,21 -20,30 -16,15 -13,12 -41,12 h -749 c -7,-40 17,-83 -48,-142 -55,-49 7,-55 34,-113 32,-67 10,-134 -38,-169 -10,-7 -20,-10 -23,-26 -3,-24 21,-26 43,-52 53,-62 41,-139 -20,-199 -70,-70 64,-46 51,-196 -8,-92 -69,-103 -72,-121 l 1,-598 c 0,-22 0,-19 26,-41 15,-13 30,-8 56,-8 h 603 c 42,0 86,0 129,2 57,3 63,10 65,67 5,177 4,359 3,536 -25,-5 -45,-15 -73,-21 -28,-5 -58,-6 -88,-5 -55,3 -101,23 -138,48 -20,13 -33,26 -50,41 -9,7 -16,13 -24,21 -28,25 -94,93 -111,124 -42,74 -2,209 119,225 118,16 168,-89 233,-137 z m -949,-268 c -40,13 -331,-10 -391,19 -25,12 -54,44 -67,71 -37,78 7,161 57,189 39,22 66,19 116,20 46,0 94,-1 140,1 -16,14 -114,34 -112,144 0,53 32,97 72,118 15,8 31,11 46,18 -14,9 -48,7 -86,49 -20,23 -37,64 -32,106 11,87 76,120 156,120 l 73,-1 c -18,19 -39,11 -80,56 -64,68 -32,185 61,215 18,6 41,6 58,14 3,7 5,19 10,29 26,62 73,112 138,139 70,30 290,20 394,20 l 469,-2 c 43,0 49,3 86,-11 53,-22 82,-45 111,-79 34,-40 48,-72 52,-138 3,-61 2,-125 3,-186 1,-62 1,-125 2,-187 0,-61 -2,-132 2,-192 16,10 37,26 51,39 l -3,453 c -1,83 0,129 -34,193 -26,48 -66,91 -111,118 -66,40 -100,38 -187,39 -227,5 -456,-1 -684,3 4,13 154,128 179,146 63,46 125,90 201,130 144,77 350,150 522,67 67,-32 178,-122 236,-174 16,-13 28,-26 44,-38 l 254,-244 c 14,-14 31,-20 34,-48 20,-195 25,-545 -70,-698 -37,-60 -208,-191 -270,-245 l -139,-119 c -29,-26 -23,-11 -24,-64 -1,-224 3,-457 -7,-679 -2,-57 -10,-95 -39,-132 -24,-32 -53,-59 -93,-80 -63,-34 -235,-26 -319,-26 l -521,3 c -70,1 -105,-3 -161,26 -39,21 -74,55 -95,91 -30,50 -35,84 -36,152 -2,61 -3,122 -3,184 0,46 4,357 -3,371 z"
   id="path9"
   inkscape:connector-curvature="0"
   style="fill:#e31e24" />
   <path
   class="fil2"
   d="m 5687,2916 c -65,48 -115,153 -233,137 -121,-16 -161,-151 -119,-225 17,-31 83,-99 111,-124 8,-8 15,-14 24,-21 17,-15 30,-28 50,-41 37,-25 83,-45 138,-48 30,-1 60,0 88,5 28,6 48,16 73,21 1,-177 2,-359 -3,-536 -2,-57 -8,-64 -65,-67 -43,-2 -87,-2 -129,-2 h -603 c -26,0 -41,-5 -56,8 -26,22 -26,19 -26,41 l -1,598 c 3,18 64,29 72,121 13,150 -121,126 -51,196 61,60 73,137 20,199 -22,26 -46,28 -43,52 3,16 13,19 23,26 48,35 70,102 38,169 -27,58 -89,64 -34,113 65,59 41,102 48,142 h 749 c 28,0 25,3 41,-12 8,-9 19,-14 20,-30 4,-66 0,-147 0,-215 v -373 c 0,-27 4,-28 -13,-41 -22,-16 -105,-86 -119,-93 z"
   id="path11"
   inkscape:connector-curvature="0"
   style="fill:#f7f7f7" />
   <path
   class="fil3"
   d="m 5304,3851 c 8,35 48,62 95,51 37,-8 68,-48 54,-96 -27,-93 -174,-60 -149,45 z"
   id="path13"
   inkscape:connector-curvature="0"
   style="fill:#f6f6f6" />
  </g>
  <polygon
   class="fil0 str0"
   points="4413,1463 5355,931 6296,1463 7237,1995 7237,3059 7237,4123 6296,4655 5355,5187 4413,4655 3472,4123 3472,3059 3472,1995 "
   id="polygon16"
   style="fill:#fefefe;stroke:#2b2a29;stroke-width:20" />
  <g
   id="_1916791876960">
   <path
   class="fil1"
   d="m 5161,3851 c -25,-105 122,-138 149,-45 14,48 -17,88 -54,96 -47,11 -87,-16 -95,-51 z m 383,-935 c 14,7 97,77 119,93 18,13 13,14 13,41 v 373 c 0,68 4,149 0,215 -1,16 -12,21 -20,30 -16,15 -13,12 -41,12 h -749 c -7,-40 17,-83 -48,-142 -55,-49 7,-55 35,-113 32,-67 9,-134 -39,-169 -10,-7 -20,-10 -22,-26 -4,-24 20,-26 42,-52 53,-62 42,-139 -20,-199 -70,-70 65,-46 51,-196 -8,-92 -69,-103 -72,-121 l 1,-598 c 0,-22 0,-19 26,-41 15,-13 30,-8 56,-8 h 603 c 42,0 86,0 129,2 58,3 64,10 65,67 5,177 4,359 3,536 -25,-5 -45,-15 -73,-21 -28,-5 -58,-6 -87,-5 -56,3 -102,23 -139,48 -20,13 -33,26 -50,41 -9,7 -16,13 -24,21 -28,25 -94,93 -111,124 -42,74 -2,209 119,225 118,16 168,-89 233,-137 z m -948,-268 c -41,13 -332,-10 -391,19 -26,12 -55,44 -68,71 -37,78 7,161 57,189 39,22 66,19 116,20 46,0 94,-1 140,1 -16,14 -114,34 -112,144 1,53 32,97 72,118 15,8 31,11 46,18 -13,9 -48,7 -86,49 -20,23 -37,64 -32,106 11,87 76,120 156,120 l 74,-1 c -18,19 -40,11 -81,56 -64,68 -32,185 62,215 17,6 40,6 57,14 3,7 5,19 10,29 26,62 73,112 138,139 70,30 290,20 394,20 l 470,-2 c 43,0 49,3 85,-11 54,-22 82,-45 111,-79 34,-40 48,-72 52,-138 4,-61 3,-125 3,-186 1,-62 1,-125 2,-187 1,-61 -2,-132 2,-192 16,10 37,26 51,39 l -3,453 c -1,83 1,129 -34,193 -26,48 -66,91 -111,118 -66,40 -100,38 -187,39 -227,5 -456,-1 -683,3 3,13 153,128 178,146 63,46 126,90 202,130 143,77 349,150 521,67 67,-32 178,-122 236,-174 16,-13 29,-26 44,-38 l 254,-244 c 15,-14 31,-20 34,-48 20,-195 25,-545 -70,-698 -37,-60 -208,-191 -270,-245 l -139,-119 c -29,-26 -23,-11 -24,-64 -1,-224 3,-457 -7,-679 -2,-57 -10,-95 -39,-132 -24,-32 -53,-59 -93,-80 -63,-34 -235,-26 -319,-26 l -521,3 c -70,1 -105,-3 -161,26 -39,21 -74,55 -95,91 -30,50 -35,84 -36,152 -1,61 -3,122 -3,184 0,46 4,357 -2,371 z"
   id="path18"
   inkscape:connector-curvature="0"
   style="fill:#e31e24" />
   <path
   class="fil2"
   d="m 5544,2916 c -65,48 -115,153 -233,137 -121,-16 -161,-151 -119,-225 17,-31 83,-99 111,-124 8,-8 15,-14 24,-21 17,-15 30,-28 50,-41 37,-25 83,-45 139,-48 29,-1 59,0 87,5 28,6 48,16 73,21 1,-177 2,-359 -3,-536 -1,-57 -7,-64 -65,-67 -43,-2 -87,-2 -129,-2 h -603 c -26,0 -41,-5 -56,8 -26,22 -26,19 -26,41 l -1,598 c 3,18 64,29 72,121 14,150 -121,126 -51,196 62,60 73,137 20,199 -22,26 -46,28 -42,52 2,16 12,19 22,26 48,35 71,102 39,169 -28,58 -90,64 -35,113 65,59 41,102 48,142 h 749 c 28,0 25,3 41,-12 8,-9 19,-14 20,-30 4,-66 0,-147 0,-215 v -373 c 0,-27 5,-28 -13,-41 -22,-16 -105,-86 -119,-93 z"
   id="path20"
   inkscape:connector-curvature="0"
   style="fill:#f7f7f7" />
   <path
   class="fil3"
   d="m 5161,3851 c 8,35 48,62 95,51 37,-8 68,-48 54,-96 -27,-93 -174,-60 -149,45 z"
   id="path22"
   inkscape:connector-curvature="0"
   style="fill:#f6f6f6" />
  </g>
 </g>
</svg>