<?xml version="1.0" encoding="UTF-8" standalone="no"?>
<!-- Creator: CorelDRAW X8 -->

<svg
   xmlns:dc="http://purl.org/dc/elements/1.1/"
   xmlns:cc="http://creativecommons.org/ns#"
   xmlns:rdf="http://www.w3.org/1999/02/22-rdf-syntax-ns#"
   xmlns:svg="http://www.w3.org/2000/svg"
   xmlns="http://www.w3.org/2000/svg"
   xmlns:sodipodi="http://sodipodi.sourceforge.net/DTD/sodipodi-0.dtd"
   xmlns:inkscape="http://www.inkscape.org/namespaces/inkscape"
   xml:space="preserve"
   width="36"
   height="36"
   version="1.1"
   style="clip-rule:evenodd;fill-rule:evenodd;image-rendering:optimizeQuality;shape-rendering:geometricPrecision;text-rendering:geometricPrecision"
   viewBox="0 0 952.50003 952.50003"
   id="svg17"
   sodipodi:docname="description.svg"
   inkscape:version="0.92.4 (5da689c313, 2019-01-14)"><metadata
   id="metadata21"><rdf:RDF><cc:Work
       rdf:about=""><dc:format>image/svg+xml</dc:format><dc:type
         rdf:resource="http://purl.org/dc/dcmitype/StillImage" /><dc:title></dc:title></cc:Work></rdf:RDF></metadata><sodipodi:namedview
   pagecolor="#ffffff"
   bordercolor="#666666"
   borderopacity="1"
   objecttolerance="10"
   gridtolerance="10"
   guidetolerance="10"
   inkscape:pageopacity="0"
   inkscape:pageshadow="2"
   inkscape:window-width="640"
   inkscape:window-height="480"
   id="namedview19"
   showgrid="false"
   units="px"
   inkscape:zoom="6.9144444"
   inkscape:cx="14.176922"
   inkscape:cy="17.52196"
   inkscape:window-x="0"
   inkscape:window-y="0"
   inkscape:window-maximized="0"
   inkscape:current-layer="svg17" />
 <defs
   id="defs4">
  <style
   type="text/css"
   id="style2">
   <![CDATA[
    .str0 {stroke:#2B2A29;stroke-width:20}
    .fil0 {fill:#FEFEFE}
    .fil1 {fill:#E31E24}
   ]]>
  </style>
 </defs>
 <g
   id="Warstwa_x0020_1"
   transform="matrix(0.28453731,0,0,0.25133468,-1051.4254,-452.04478)">
  <metadata
   id="CorelCorpID_0Corel-Layer" />
  <polygon
   class="fil0 str0"
   points="6897,4550 6129,4984 5361,5418 4593,4984 3825,4550 3825,3681 3825,2813 4593,2379 5361,1945 6129,2379 6897,2813 6897,3681 "
   id="polygon7"
   style="fill:#fefefe;stroke:#2b2a29;stroke-width:20" />
  <g
   id="_1916988412720">
   <path
   class="fil1"
   d="m 4807,3802 390,365 c 20,-14 36,-32 53,-50 l 272,-293 c 9,-10 16,-16 26,-26 l 149,-159 c 18,-18 33,-32 51,-51 l 198,-213 c 16,-16 41,-32 47,-55 l -68,-71 c -57,-47 -122,-117 -172,-161 l -51,-47 c -20,-20 -80,-84 -104,-86 -7,24 -46,52 -71,79 l -223,238 c -9,10 -17,16 -26,26 l -97,108 c -9,9 -17,16 -26,25 -18,19 -35,33 -50,53 -23,30 -56,55 -75,79 -11,12 -12,16 -24,28 l -149,158 c -17,21 -36,32 -50,53 z"
   id="path9"
   inkscape:connector-curvature="0"
   style="fill:#e31e24" />
   <path
   class="fil1"
   d="m 4720,3910 c 0,62 28,-18 -21,128 -25,73 -128,346 -128,385 0,50 107,-9 149,-25 l 337,-140 c 23,-4 30,27 73,-15 42,-43 43,-25 -65,-129 -11,-11 -14,-11 -25,-21 -9,-7 -15,-14 -23,-23 l -193,-182 c -21,-21 -28,-28 -53,-45 -16,11 -51,41 -51,67 z"
   id="path11"
   inkscape:connector-curvature="0"
   style="fill:#e31e24" />
   <path
   class="fil1"
   d="m 5644,2914 c 17,25 290,272 335,317 17,17 31,35 50,48 22,-6 56,-47 56,-67 0,-41 -48,-66 -80,-99 -16,-16 -28,-28 -44,-44 l -213,-197 c -40,-36 -79,5 -104,42 z"
   id="path13"
   inkscape:connector-curvature="0"
   style="fill:#e31e24" />
  </g>
 </g>
</svg>