<?xml version="1.0" encoding="UTF-8" standalone="no"?>
<!-- Creator: CorelDRAW X8 -->

<svg
   xmlns:dc="http://purl.org/dc/elements/1.1/"
   xmlns:cc="http://creativecommons.org/ns#"
   xmlns:rdf="http://www.w3.org/1999/02/22-rdf-syntax-ns#"
   xmlns:svg="http://www.w3.org/2000/svg"
   xmlns="http://www.w3.org/2000/svg"
   xmlns:sodipodi="http://sodipodi.sourceforge.net/DTD/sodipodi-0.dtd"
   xmlns:inkscape="http://www.inkscape.org/namespaces/inkscape"
   xml:space="preserve"
   width="36"
   height="36"
   version="1.1"
   style="clip-rule:evenodd;fill-rule:evenodd;image-rendering:optimizeQuality;shape-rendering:geometricPrecision;text-rendering:geometricPrecision"
   viewBox="0 0 952.49998 952.50001"
   id="svg12"
   sodipodi:docname="editing.svg"
   inkscape:version="0.92.4 (5da689c313, 2019-01-14)"><metadata
   id="metadata16"><rdf:RDF><cc:Work
       rdf:about=""><dc:format>image/svg+xml</dc:format><dc:type
         rdf:resource="http://purl.org/dc/dcmitype/StillImage" /><dc:title></dc:title></cc:Work></rdf:RDF></metadata><sodipodi:namedview
   pagecolor="#ffffff"
   bordercolor="#666666"
   borderopacity="1"
   objecttolerance="10"
   gridtolerance="10"
   guidetolerance="10"
   inkscape:pageopacity="0"
   inkscape:pageshadow="2"
   inkscape:window-width="960"
   inkscape:window-height="704"
   id="namedview14"
   showgrid="false"
   units="px"
   inkscape:zoom="4.8892505"
   inkscape:cx="18.894743"
   inkscape:cy="29.617252"
   inkscape:window-x="0"
   inkscape:window-y="0"
   inkscape:window-maximized="0"
   inkscape:current-layer="svg12" />
 <defs
   id="defs4">
  <style
   type="text/css"
   id="style2">
   <![CDATA[
    .str0 {stroke:#2B2A29;stroke-width:20}
    .fil0 {fill:#FEFEFE}
    .fil1 {fill:#E31E24}
   ]]>
  </style>
 </defs>
 <g
   id="Warstwa_x0020_1"
   transform="matrix(0.24229169,0,0,0.21935912,-788.56844,-254.14639)">
  <metadata
   id="CorelCorpID_0Corel-Layer" />
  <polygon
   class="fil0 str0"
   points="4349,1916 5192,1439 6035,1916 6878,2392 6878,3345 6878,4299 6035,4775 5192,5252 4349,4775 3506,4299 3506,3345 3506,2392 "
   id="polygon7"
   style="fill:#fefefe;stroke:#2b2a29;stroke-width:20" />
  <path
   class="fil1"
   d="m 5122,4400 c 0,-22 19,-44 40,-44 h 10 c 53,0 53,89 0,89 h -10 c -22,0 -40,-23 -40,-45 z m 761,-250 c -68,0 -59,-92 -2,-90 23,1 45,21 45,44 0,24 -19,46 -43,46 z m -1427,0 c -61,0 -61,-90 -2,-90 27,0 45,20 46,44 1,24 -21,46 -44,46 z m -109,-740 c 0,-104 11,-197 45,-289 10,-25 18,-50 30,-73 22,-45 45,-87 73,-127 10,-14 53,-70 67,-83 l 50,-51 c 17,-16 65,-53 84,-67 126,-91 298,-149 455,-149 86,0 132,4 212,23 26,6 51,15 76,23 43,14 101,40 139,63 72,43 114,75 170,132 42,41 58,61 92,108 45,63 77,127 103,199 9,26 16,50 23,77 33,122 29,270 0,391 -8,33 -12,46 -23,77 -4,13 -8,25 -13,36 -6,12 -10,25 -16,37 -5,11 -11,21 -16,33 l -4,8 c -15,27 -36,62 -53,85 -15,20 -27,39 -44,57 l -74,78 c -47,47 -147,112 -211,141 -33,15 -73,30 -109,41 -14,4 -26,7 -39,10 -136,37 -295,29 -430,-10 -13,-4 -26,-8 -38,-12 -25,-9 -49,-19 -72,-29 -11,-5 -22,-11 -34,-17 -53,-26 -135,-83 -177,-123 l -51,-51 c -52,-53 -108,-146 -140,-211 -46,-92 -75,-229 -75,-327 z m 1785,-12 v -9 c 0,-53 88,-53 88,0 v 9 c 0,22 -22,41 -44,41 -22,0 -44,-19 -44,-41 z m -2016,-2 v -9 c 0,-22 22,-41 44,-41 22,0 44,19 44,41 v 9 c 0,53 -88,53 -88,0 z m 294,-715 c 0,-59 90,-65 90,2 0,23 -22,42 -46,42 -22,-1 -44,-22 -44,-44 z m 1470,-46 c 59,0 64,90 -2,90 -23,0 -43,-23 -42,-46 0,-23 21,-44 44,-44 z m -706,-206 h -10 c -53,0 -53,-89 0,-89 h 10 c 22,0 40,22 40,44 0,22 -19,45 -40,45 z m -231,-250 c 8,16 9,42 9,61 0,45 -43,89 -88,89 -31,0 -60,-10 -78,-32 l -19,-29 c -3,-7 -11,-31 -11,-39 -13,0 -47,15 -61,21 -20,10 -39,17 -58,27 2,5 6,11 9,16 18,30 23,63 10,97 -29,76 -127,76 -171,14 -6,-9 -11,-20 -17,-29 -28,14 -77,60 -102,77 12,18 48,39 48,82 0,32 -4,55 -27,78 -40,40 -105,33 -143,-6 -6,-6 -10,-11 -17,-16 l -58,75 c -7,9 -12,18 -19,27 10,6 20,11 29,18 10,6 16,12 24,22 64,86 -24,187 -117,147 -10,-4 -25,-15 -34,-18 -8,15 -47,102 -48,120 25,0 50,15 68,29 18,13 32,41 32,65 0,32 -7,55 -27,75 -24,23 -49,27 -82,27 -9,0 -35,-7 -41,-10 -6,13 -17,104 -17,127 39,0 65,5 90,24 49,36 49,112 0,149 -25,19 -51,23 -90,23 0,24 11,114 17,127 17,-8 43,-9 62,-9 45,0 88,43 88,88 0,33 -9,57 -32,78 -16,15 -44,29 -68,30 2,20 38,99 48,119 11,-3 23,-12 33,-17 36,-16 82,-9 109,16 8,7 15,15 21,26 23,44 2,100 -36,127 -9,7 -19,11 -29,18 18,25 37,52 57,76 7,9 14,16 20,25 13,-8 22,-22 35,-30 39,-26 92,-24 126,10 41,40 31,105 -6,142 -6,6 -12,10 -16,17 16,11 44,35 61,48 l 41,29 c 6,-9 11,-20 17,-29 44,-62 142,-62 171,14 13,33 8,66 -9,96 -3,5 -8,11 -10,17 15,8 98,46 119,48 1,-25 16,-50 29,-67 6,-7 18,-17 27,-21 71,-37 140,19 140,77 0,31 -2,32 -9,63 23,0 84,15 127,15 0,-39 4,-65 24,-91 48,-64 172,-46 172,82 v 9 c 23,0 114,-11 127,-17 -8,-17 -10,-42 -10,-61 0,-46 43,-89 89,-89 32,0 58,9 78,32 14,17 29,44 30,68 20,-2 99,-37 119,-48 -3,-11 -13,-22 -17,-33 -17,-36 -10,-82 15,-109 17,-18 32,-26 63,-30 24,-4 54,11 68,21 19,15 27,34 40,53 18,-12 88,-61 100,-77 -4,-15 -46,-35 -46,-83 0,-33 3,-53 26,-77 41,-40 105,-33 144,6 5,5 10,11 17,15 11,-17 26,-32 39,-49 l 37,-52 c -8,-6 -18,-11 -27,-17 -10,-7 -17,-13 -24,-22 -70,-94 33,-198 132,-140 5,3 12,8 18,9 l 37,-87 c 4,-9 10,-23 11,-32 -11,0 -33,-7 -42,-12 0,0 -3,-1 -4,-2 -3,-2 -6,-3 -9,-5 -24,-15 -45,-43 -45,-77 0,-32 6,-53 28,-74 24,-22 48,-26 81,-26 14,0 31,7 43,9 0,-19 6,-41 9,-61 2,-22 6,-43 6,-66 -39,0 -66,-4 -90,-23 -66,-49 -47,-173 80,-173 h 10 c 0,-23 -11,-114 -17,-127 -17,8 -43,10 -62,10 -45,0 -88,-43 -88,-89 0,-23 5,-46 19,-64 12,-15 24,-24 42,-32 6,-4 30,-11 39,-11 -1,-18 -41,-105 -48,-120 -24,7 -35,27 -75,27 -85,0 -124,-91 -76,-156 14,-19 33,-27 52,-40 -17,-26 -36,-52 -56,-76 -8,-9 -14,-16 -20,-26 -19,12 -39,48 -83,48 -18,0 -37,-1 -53,-9 -28,-14 -51,-39 -51,-77 0,-37 7,-59 32,-83 6,-6 12,-11 16,-17 -9,-6 -16,-13 -25,-20 -16,-14 -59,-48 -77,-57 -13,19 -21,38 -40,52 -41,31 -96,29 -131,-8 -32,-35 -30,-86 -8,-125 3,-5 8,-11 10,-17 -18,-10 -97,-47 -119,-48 -1,7 -8,31 -11,38 -15,31 -44,62 -84,62 -31,0 -55,-8 -74,-28 -24,-24 -28,-48 -28,-82 0,-13 7,-30 10,-42 -8,0 -21,-3 -30,-5 l -63,-8 c -12,-2 -21,-3 -34,-3 0,39 -5,66 -23,90 -50,67 -173,47 -173,-80 v -10 c -23,0 -43,3 -65,6 -15,3 -51,6 -62,12 z"
   id="path9"
   inkscape:connector-curvature="0"
   style="fill:#e31e24" />
 </g>
</svg>