<svg xmlns="http://www.w3.org/2000/svg">
<defs>
<font
   id="FontID0"
   horiz-adv-x="719"
   font-variant="normal"
   font-weight="400"
   horiz-origin-x="0"
   horiz-origin-y="0"
   vert-origin-x="45"
   vert-origin-y="90"
   vert-adv-y="90"
   style="font-variant:normal;font-weight:400">
	<font-face
   font-family="Arial Rounded MT Bold"
   id="font-face2">
		<font-face-src>
			<font-face-name
   name="Arial Rounded MT Bold" />
		</font-face-src>
	</font-face>
   <missing-glyph
   id="missing-glyph6"><path
     d="M0 0z"
     id="path4" /></missing-glyph>
   <glyph
   unicode="w"
   horiz-adv-x="813"
   d="M151.817 447.016l87.0208 -297.997 78.9863 276.972c8.51421,29.0203 14.8299,48.6869 18.8272,59.3596 3.99728,10.4729 11.6721,20.6659 23.0243,30.2994 11.1524,9.51353 26.502,14.3502 46.1686,14.3502 19.8265,0 35.336,-4.83671 46.4884,-14.3502 11.3523,-9.63345 19.187,-20.1463 23.6639,-31.2987 4.67682,-11.1924 10.9925,-30.6991 19.187,-58.3603l78.9863 -276.972 87.8203 297.997c5.99592,21.4654 10.6727,36.9749 14.1904,46.6483 3.63753,9.51353 9.63345,17.9878 18.1477,25.3428 8.51421,7.31503 20.6659,10.9925 36.6551,10.9925 15.8692,0 29.6998,-5.51625 41.5318,-16.6687 11.6321,-10.9925 17.4681,-23.9837 17.4681,-39.0135 0,-13.6707 -4.9966,-34.3367 -15.1497,-61.9978l-108.846 -319.303c-9.47356,-27.0216 -16.8286,-46.5284 -21.9851,-58.6801 -5.15649,-11.9918 -13.3509,-22.6646 -24.6632,-32.1781 -11.1524,-9.47356 -26.502,-14.1504 -46.1686,-14.1504 -20.1863,0 -36.0155,4.9966 -47.4877,15.1497 -11.6721,9.9932 -20.1863,22.5047 -25.7025,37.0148 -5.47628,14.67 -11.4722,33.6571 -17.9878,57.1611l-76.1482 259.663 -73.8298 -259.663c-9.67342,-36.1754 -20.3462,-63.3169 -31.6984,-81.8244 -11.3123,-18.3475 -31.4986,-27.5013 -59.9992,-27.5013 -14.6301,0 -27.1415,2.83807 -37.4945,8.47424 -10.1531,5.67614 -18.6673,13.8706 -25.5027,24.5033 -6.83535,10.5129 -12.8313,23.0243 -18.1477,37.4945 -5.15649,14.5101 -9.15378,26.0223 -12.1917,34.5365l-107.807 319.303c-10.8326,30.0196 -16.189,50.6855 -16.189,61.9978 0,14.3502 5.67614,27.1815 17.1883,38.5338 11.3123,11.4722 25.3428,17.1483 41.8116,17.1483 22.1849,0 37.1747,-6.31571 45.0094,-18.8272 7.83467,-12.5115 16.189,-33.857 24.8231,-64.1564z"
   id="glyph8" />
   <glyph
   unicode="t"
   horiz-adv-x="353"
   d="M76.3481 518.008l14.67 0 0 80.1455c0,21.5054 0.479674,38.3339 1.63889,50.5256 1.15921,12.3116 4.35704,22.8245 9.51353,31.4986 5.15649,9.15378 12.6714,16.6687 22.5047,22.3048 9.67342,5.67614 20.5061,8.51421 32.6578,8.51421 16.8286,0 32.0182,-6.31571 45.649,-18.9871 9.19375,-8.51421 14.8699,-18.8272 17.3482,-31.1788 2.51829,-12.1517 3.6775,-29.4999 3.6775,-52.0046l0 -90.8182 48.8068 0c18.8672,0 33.3373,-4.51693 43.1706,-13.3509 10.0332,-8.99388 15.0298,-20.5061 15.0298,-34.3367 0,-17.9878 -7.19511,-30.4993 -21.3455,-37.6544 -14.1504,-7.15513 -34.3367,-10.6727 -60.8386,-10.6727l-24.8231 0 0 -244.993c0,-20.8258 0.639565,-37.0148 2.15853,-48.1672 1.51897,-11.1524 5.31638,-20.3462 11.6721,-27.3414 6.4756,-6.99524 16.8286,-10.4729 31.1788,-10.4729 7.63481,0 18.3076,1.3191 31.6585,4.15717 13.3109,2.63821 23.8238,4.15717 31.1388,4.15717 10.8326,0 20.5061,-4.31706 29.1802,-12.9912 8.6741,-8.6741 12.8313,-19.3468 12.8313,-32.0182 0,-21.5054 -11.6721,-37.8143 -34.9762,-49.1666 -23.504,-11.4722 -57.2011,-17.1483 -101.171,-17.1483 -41.6916,0 -73.1902,6.99524 -94.4957,20.9857 -21.5054,13.9905 -35.5358,33.3373 -42.1713,58.1605 -6.67546,24.6632 -9.9932,57.6808 -9.9932,99.0127l0 255.826 -17.5081 0c-19.3468,0 -34.0169,4.51693 -44.0101,13.6707 -10.1531,8.99388 -15.1497,20.6659 -15.1497,34.6564 0,13.8306 5.31638,25.3428 15.8292,34.3367 10.6727,8.83399 25.9823,13.3509 46.1686,13.3509z"
   id="glyph10" />
   <glyph
   unicode="O"
   horiz-adv-x="792"
   d="M393.004 728c74.3287,0 137.994,-15.0019 191.159,-45.1705 53.1657,-29.9929 93.5039,-72.8241 120.839,-128.329 27.3351,-55.5049 40.9972,-120.663 40.9972,-195.497 0,-55.3402 -7.50096,-105.672 -22.5029,-150.832 -15.0019,-45.3352 -37.3291,-84.5094 -67.3329,-117.676 -29.9929,-33.1668 -66.663,-58.4921 -110.329,-76.1628 -43.6659,-17.4949 -93.5039,-26.3357 -149.833,-26.3357 -55.9991,0 -106.167,9.00555 -150.338,27.1704 -44.3358,18.0001 -81.1597,43.5012 -110.834,76.3385 -29.6634,32.8263 -52.0015,72.3299 -67.1682,118.665 -15.1667,46.1589 -22.6676,96.1617 -22.6676,149.833 0,54.9997 7.84141,105.332 23.667,151.326 15.8366,45.8404 38.6689,84.8388 68.6728,117.171 29.8281,32.1674 66.3335,56.8338 109.33,73.8345 42.8313,17.1654 91.6699,25.6658 146.34,25.6658zm205.996 -367.997c0,52.331 -8.50036,97.831 -25.3363,136.335 -17.0007,38.3285 -41.1619,67.3329 -72.4946,87.1671 -31.3327,19.6584 -67.4977,29.4987 -108.165,29.4987 -28.8397,0 -55.6697,-5.50217 -80.1713,-16.3418 -24.6664,-10.9934 -45.8294,-26.8299 -63.5001,-47.6635 -17.6706,-20.8336 -31.6622,-47.4988 -41.9966,-79.8309 -10.1697,-32.4968 -15.3314,-68.8375 -15.3314,-109.165 0,-40.8325 5.16172,-77.5026 15.3314,-110.505 10.3344,-32.8263 24.8311,-60.1614 43.5012,-81.8297 18.6591,-21.6682 40.1625,-37.8343 64.3347,-48.4982 24.326,-10.8396 50.8264,-16.1661 79.8309,-16.1661 37.1644,0 71.1658,9.33502 102.334,27.8293 30.9923,18.5053 55.6587,47.1693 74.164,86.003 18.3296,38.6689 27.4999,86.4972 27.4999,143.166z"
   id="glyph12" />
   <glyph
   unicode="n"
   horiz-adv-x="603"
   d="M189.666 456.329l0 -16.1661c23.5023,31.0032 49.1681,53.6709 76.9974,68.1676 27.8403,14.5077 59.832,21.6682 96.0079,21.6682 35.1656,0 66.4983,-7.6657 94.3276,-22.9971 27.6646,-15.1667 48.3334,-36.8349 62.0065,-64.8399 8.82983,-16.3308 14.4967,-33.8257 17.1654,-52.8252 2.493,-18.8348 3.83285,-42.8313 3.83285,-72.1652l0 -248.169c0,-26.6652 -6.17209,-46.8398 -18.3406,-60.5019 -12.1575,-13.6621 -28.1588,-20.5041 -47.6635,-20.5041 -19.8342,0 -36.0002,7.00675 -48.4982,20.9983 -12.3332,14.0025 -18.5053,34.0014 -18.5053,60.0077l0 222.327c0,43.8416 -6.16111,77.5026 -18.3296,100.84 -12.1685,23.1618 -36.4944,34.8251 -72.9998,34.8251 -23.667,0 -45.3352,-6.99577 -65.0047,-21.163 -19.4937,-14.1673 -33.8257,-33.661 -42.8313,-58.5031 -6.50156,-19.8232 -9.82922,-56.8338 -9.82922,-111.328l0 -166.998c0,-27.0057 -6.33683,-47.1693 -18.8348,-60.6666 -12.4979,-13.4973 -28.664,-20.3394 -48.3334,-20.3394 -19.1642,0 -35.0008,7.00675 -47.334,20.9983 -12.3332,14.0025 -18.4943,34.0014 -18.4943,60.0077l0 385.328c0,25.3363 5.49119,44.3358 16.4955,56.8338 11.1691,12.4979 26.171,18.8348 45.3352,18.8348 11.6633,0 22.3272,-2.83345 31.6622,-8.33562 9.49975,-5.49119 17.0007,-13.8268 22.6676,-24.8311 5.6669,-10.9934 8.50036,-24.6664 8.50036,-40.503z"
   id="glyph14" />
   <glyph
   unicode="รณ"
   horiz-adv-x="603"
   d="M568.014 258.824c0,-39.8129 -6.19579,-76.3081 -18.5074,-109.805 -12.5115,-33.5372 -30.3394,-62.3576 -53.8434,-86.3413 -23.3441,-24.1836 -51.485,-42.4911 -83.9829,-55.3624 -32.4979,-12.8313 -69.1929,-19.3069 -109.845,-19.3069 -40.4925,0 -76.8278,6.4756 -109.006,19.5067 -32.1781,12.9912 -60.1591,31.6585 -83.823,56.0019 -23.504,24.1436 -41.4918,52.8041 -53.6835,85.8216 -12.1517,33.1774 -18.3076,69.6726 -18.3076,109.645 0,40.3326 6.15581,77.3474 18.4674,110.845 12.5115,33.4972 30.1795,62.1577 53.3637,86.0215 23.1443,23.6639 51.1652,41.9715 83.9829,54.8027 32.8577,12.8313 69.153,19.3468 109.006,19.3468 40.3326,0 76.9876,-6.51557 109.845,-19.5067 32.8177,-12.9912 60.9985,-31.6585 84.5025,-55.842 23.504,-23.9837 41.3319,-52.6442 53.4836,-85.9815 12.1517,-33.1774 18.3475,-69.8325 18.3475,-109.845zm-134.029 0c0,54.3231 -11.9918,96.4944 -35.8156,126.834 -23.9837,30.1795 -56.0019,45.3292 -96.3345,45.3292 -26.1822,0 -49.0067,-6.63549 -68.8332,-20.1463 -19.8265,-13.5108 -35.1761,-33.4972 -45.8488,-59.8393 -10.8326,-26.3421 -16.149,-57.1611 -16.149,-92.1773 0,-34.8163 5.31638,-65.3156 15.8292,-91.3379 10.6727,-25.9823 25.6625,-45.9687 45.3292,-59.8393 19.6666,-13.8306 43.0108,-20.6659 69.6726,-20.6659 40.3326,0 72.3508,15.1897 96.3345,45.6889 23.8238,30.3394 35.8156,72.5107 35.8156,126.154zm-117 462.166l66.0351 0c16.6287,0 24.983,-2.47831 24.983,-7.31503 0,-2.51829 -9.15378,-13.191 -27.3414,-31.6585 -18.3475,-18.5074 -36.6551,-36.1754 -55.3224,-53.1638 -18.5074,-16.8685 -31.4986,-27.1815 -38.6537,-30.6991 -18.5074,-9.47356 -38.5338,-14.1504 -59.6794,-14.1504 -13.9905,0 -20.9857,3.99728 -20.9857,12.1517 0,5.51625 4.15717,15.1897 12.6314,28.8604l22.025 40.8122c12.8313,23.8238 23.8238,39.0135 33.3373,45.4891 9.47356,6.51557 23.8238,9.67342 42.9708,9.67342z"
   id="glyph16" />
   <glyph
   unicode="y"
   horiz-adv-x="541"
   d="M191.83 -28.8204l12.3516 29.8197 -164.008 413.159c-10.1531,23.8238 -15.1897,41.172 -15.1897,51.8447 0,11.3123 2.99796,21.9851 8.83399,31.8184 5.83603,9.67342 13.8306,17.5081 24.1836,23.3441 10.1531,5.83603 20.8258,8.83399 31.8184,8.83399 19.3468,0 33.857,-6.15581 43.5304,-18.3475 9.83331,-12.1517 18.3076,-29.6598 25.8224,-52.4843l112.843 -328.177 106.807 305.192c8.51421,24.8231 16.189,44.13 23.0243,58.1605 6.83535,13.9905 13.9905,23.504 21.6653,28.3407 7.63481,4.79674 18.5074,7.31503 32.4979,7.31503 9.9932,0 19.6666,-2.67818 28.9803,-7.99456 9.19375,-5.51625 16.3489,-12.6714 21.5054,-21.8252 4.9966,-8.99388 7.51489,-18.6673 7.51489,-28.8604 -1.35908,-6.15581 -3.35772,-14.9898 -6.35568,-26.3021 -2.99796,-11.3523 -6.4756,-23.0243 -10.6727,-34.6964l-173.802 -455.17c-15.0298,-40.1327 -29.6998,-71.4714 -43.8502,-94.3359 -14.3103,-22.8245 -33.3373,-40.3326 -57.0012,-52.4843 -23.504,-12.1517 -55.3224,-18.3475 -95.3352,-18.3475 -39.0135,0 -68.3135,4.19715 -87.8203,12.6714 -19.5067,8.51421 -29.34,24.0237 -29.34,46.3285 0,15.3496 4.67682,27.1815 13.9905,35.336 9.19375,8.35432 23.0243,12.5115 41.172,12.5115 7.15513,0 14.1904,-0.99932 20.9857,-2.83807 8.51421,-1.99864 15.8692,-2.99796 22.025,-2.99796 15.3096,0 27.3414,2.3584 35.9755,6.83535 8.83399,4.51693 16.6687,12.5115 23.7039,23.6639 6.99524,11.3523 15.1497,27.8211 24.1436,49.6862z"
   id="glyph18" />
   <glyph
   unicode="W"
   horiz-adv-x="938"
   d="M585.002 113.003l-115.841 428.988 -117.16 -428.988c-9.15378,-32.6578 -16.3489,-56.0019 -21.6653,-70.1523 -5.31638,-14.0305 -14.8299,-26.8617 -28.1808,-38.0142 -13.3109,-11.1524 -30.9789,-16.8286 -53.1638,-16.8286 -17.9878,0 -32.6578,3.31774 -44.17,9.9932 -11.6721,6.67546 -20.9857,16.149 -28.1409,28.3407 -7.19511,12.1517 -13.0311,26.6619 -17.5081,43.4904 -4.67682,16.6687 -8.6741,32.1781 -12.3516,46.4884l-118.999 481.832c-7.15513,28.0209 -10.8326,49.3664 -10.8326,63.9965 0,18.5074 6.51557,34.1768 19.5067,46.8481 12.9912,12.6714 29.1802,18.9871 48.3271,18.9871 26.502,0 44.17,-8.47424 53.3637,-25.3028 8.99388,-17.0284 16.9884,-41.5318 23.8238,-73.8298l93.8162 -417.836 105.009 390.974c7.83467,30.0196 14.8299,52.8441 20.9857,68.3535 6.19579,15.6693 16.3489,29.1402 30.3394,40.4925 13.9905,11.5122 33.0175,17.1483 57.0012,17.1483 24.5033,0 43.4904,-5.99592 57.0012,-17.8279 13.5108,-11.832 22.8245,-24.8231 28.0209,-38.8136 5.15649,-13.9905 12.1517,-37.0148 20.9857,-69.3528l106.008 -390.974 93.8162 417.836c4.51693,21.8252 8.83399,38.9735 12.8313,51.3251 4.15717,12.3116 11.1924,23.504 21.0257,33.1375 9.9932,9.83331 24.3035,14.67 43.3305,14.67 18.8272,0 34.8163,-6.31571 47.9674,-18.8272 13.191,-12.4715 19.8665,-28.1409 19.8665,-47.008 0,-13.3109 -3.51761,-34.6564 -10.6727,-63.9965l-119.159 -481.832c-8.19443,-32.4979 -15.0298,-56.3217 -20.3462,-71.4714 -5.35636,-15.1897 -14.5101,-28.3407 -27.3414,-39.693 -12.8313,-11.4722 -30.9789,-17.1483 -54.483,-17.1483 -22.1849,0 -39.8529,5.47628 -53.1638,16.6687 -13.3509,10.9925 -22.6646,23.504 -27.8611,37.3346 -5.31638,13.8306 -12.4715,37.4945 -21.9851,70.9917z"
   id="glyph20" />
   <glyph
   unicode="T"
   horiz-adv-x="625"
   d="M543.151 595.995l-158.132 0 0 -519.647c0,-30.0196 -6.67546,-52.1645 -20.1863,-66.6747 -13.3509,-14.5101 -30.6592,-21.6653 -51.8447,-21.6653 -21.5054,0 -39.1734,7.31503 -52.6442,21.9851 -13.5108,14.67 -20.3462,36.6551 -20.3462,66.3549l0 519.647 -158.172 0c-24.8231,0 -43.1706,5.51625 -55.1625,16.3489 -11.9918,10.9925 -18.1477,25.5027 -18.1477,43.4904 0,18.5074 6.31571,33.1774 18.8272,44.0101 12.5115,10.8326 30.6592,16.149 54.483,16.149l461.326 0c25.1829,0 43.6903,-5.47628 56.0019,-16.6687 12.1917,-11.1524 18.3475,-25.6625 18.3475,-43.4904 0,-17.9878 -6.31571,-32.4979 -18.6673,-43.4904 -12.3516,-10.8326 -30.819,-16.3489 -55.6821,-16.3489z"
   id="glyph22" />
   <glyph
   unicode="e"
   horiz-adv-x="594"
   d="M440.832 225.995l-260.831 0c0.329471,-30.3333 6.50156,-56.9985 18.3296,-80.1603 11.839,-23.1728 27.6646,-40.503 47.334,-52.1663 19.6694,-11.839 41.5024,-17.6706 65.1694,-17.6706 16.0013,0 30.4981,1.83406 43.6659,5.6669 13.3326,3.66811 25.9953,9.49975 38.3285,17.5059 12.5089,7.99517 23.8427,16.4955 34.1662,25.6658 10.5101,9.1593 24.0075,21.4925 40.6677,37.1644 6.84202,5.83164 16.5065,8.82983 29.1692,8.82983 13.6731,0 24.8311,-3.83285 33.3315,-11.3338 8.33562,-7.32524 12.6737,-18.0001 12.6737,-31.6622 0,-12.0037 -4.83224,-26.0063 -14.1673,-42.1723 -9.49975,-16.0013 -23.667,-31.4974 -42.8313,-46.1589 -18.9995,-14.8372 -42.8422,-27.1704 -71.671,-36.8349 -28.8287,-9.84021 -61.9955,-14.6725 -99.3356,-14.6725 -85.6625,0 -152.161,24.5017 -199.66,73.3403 -47.5097,48.8276 -71.1768,114.996 -71.1768,198.66 0,39.3389 5.84262,75.998 17.5059,109.67 11.6633,33.672 28.8287,62.5007 51.1669,86.6619 22.5029,24.0075 50.1675,42.5018 82.9938,55.3402 32.8373,12.8274 69.3427,19.329 109.341,19.329 52.1663,0 96.8316,-10.9934 133.996,-33.002 37.3401,-21.9977 65.1694,-50.3322 83.8394,-85.333 18.4943,-34.8251 27.8293,-70.3311 27.8293,-106.496 0,-33.4962 -9.66449,-55.3292 -28.8287,-65.3341 -19.1752,-9.82922 -46.1699,-14.8372 -81.006,-14.8372zm-260.831 76.009l241.667 0c-3.16292,45.5 -15.4961,79.4904 -36.8349,102.158 -21.3388,22.5029 -49.3328,33.8367 -84.1689,33.8367 -33.3315,0 -60.5019,-11.4985 -81.8297,-34.3309 -21.3388,-22.9971 -34.3309,-56.8338 -38.8337,-101.664z"
   id="glyph24" />
   <glyph
   unicode="b"
   horiz-adv-x="625"
   d="M191.989 651.837l0 -203.662c25.023,26.1422 50.6855,46.1686 76.6679,59.9992 26.0223,13.8306 58.3603,20.8258 96.6942,20.8258 44.3299,0 83.1435,-10.5129 116.481,-31.4986 33.3373,-20.9857 59.1598,-51.485 77.5073,-91.3379 18.5074,-39.8129 27.6612,-87.1807 27.6612,-141.824 0,-40.3326 -5.15649,-77.3474 -15.3496,-111.005 -10.313,-33.6571 -25.1429,-62.9972 -44.6496,-87.6604 -19.5067,-24.8231 -43.3305,-43.8502 -71.1516,-57.361 -27.8611,-13.4708 -58.5202,-20.3062 -92.0174,-20.3062 -20.5061,0 -39.8129,2.47831 -57.8407,7.31503 -17.9878,4.83671 -33.4972,11.3523 -46.1686,19.3468 -12.6714,7.83467 -23.504,16.149 -32.4979,24.6632 -8.83399,8.31435 -20.6659,20.9857 -35.336,38.0142l0 -13.191c0,-24.983 -5.99592,-43.9701 -17.9878,-56.8413 -12.1517,-12.8313 -27.5013,-19.3069 -46.0087,-19.3069 -18.8272,0 -33.817,6.4756 -45.1693,19.3069 -11.1524,12.8712 -16.8286,31.8583 -16.8286,56.8413l0 581.844c0,26.9817 5.51625,47.4877 16.3489,61.3183 10.9925,13.8306 26.1422,20.6659 45.649,20.6659 20.5061,0 36.3353,-6.63549 47.3278,-19.8265 11.1924,-13.1511 16.6687,-31.9783 16.6687,-56.3217zm6.35568 -396.011c0,-53.004 12.1517,-93.6563 36.3353,-122.157 24.3035,-28.5006 56.0019,-42.651 95.3352,-42.651 33.4972,0 62.4775,14.4702 86.6611,43.6503 24.1436,29.1802 36.3353,70.8318 36.3353,125.155 0,35.0162 -4.9966,65.3556 -15.1897,90.6584 -9.9932,25.3428 -24.3035,45.0094 -42.8109,58.84 -18.6673,13.8306 -40.1727,20.6659 -64.9958,20.6659 -25.3428,0 -47.8475,-6.83535 -67.674,-20.6659 -19.8265,-13.8306 -35.4959,-33.817 -46.8481,-59.9992 -11.5122,-26.1422 -17.1483,-57.321 -17.1483,-93.4964z"
   id="glyph26" />
   <glyph
   unicode="s"
   horiz-adv-x="541"
   d="M497.981 162.01c0,-36.695 -8.99388,-68.1936 -26.8218,-94.3359 -17.8279,-26.1822 -44.3299,-46.0087 -79.346,-59.5195 -34.9762,-13.4708 -77.4673,-20.1463 -127.633,-20.1463 -47.8475,0 -88.8596,7.31503 -122.996,21.9851 -34.1768,14.5101 -59.3596,32.8577 -75.6685,54.8427 -16.189,21.8252 -24.3434,43.8502 -24.3434,65.9951 0,14.67 5.15649,27.1815 15.6693,37.4945 10.313,10.5129 23.504,15.6693 39.4931,15.6693 13.9905,0 24.6632,-3.47764 32.1781,-10.313 7.47492,-6.83535 14.67,-16.3489 21.5054,-28.8604 13.6307,-23.6639 29.9796,-41.4918 48.9667,-53.1638 19.0271,-11.832 45.0094,-17.668 77.8671,-17.668 26.6619,0 48.487,5.99592 65.4755,17.8279 17.1883,11.832 25.6625,25.5027 25.6625,40.8522 0,23.504 -8.83399,40.4925 -26.502,51.3251 -17.8279,10.6727 -46.9681,20.9857 -87.6604,30.819 -45.8088,11.3523 -83.1435,23.3441 -112.004,35.8556 -28.6605,12.5115 -51.6449,29.1802 -68.9931,49.6462 -17.1483,20.5061 -25.8224,45.8488 -25.8224,75.6685 0,26.8617 7.99456,52.0046 23.8238,75.8684 15.9891,23.8238 39.4931,42.651 70.6719,56.8014 30.9789,14.1904 68.5134,21.3455 112.484,21.3455 34.4965,0 65.5154,-3.51761 92.8569,-10.6727 27.5013,-7.15513 50.4857,-16.8286 68.8332,-28.8204 18.5074,-12.1917 32.4979,-25.5027 41.9715,-40.1727 9.67342,-14.67 14.5101,-28.8204 14.5101,-43.0108 0,-15.1497 -5.15649,-27.8211 -15.5095,-37.4945 -10.1531,-9.83331 -24.8231,-14.67 -43.6503,-14.67 -13.6707,0 -25.3428,3.83739 -35.0162,11.6721 -9.47356,7.83467 -20.4661,19.5067 -32.9776,35.1761 -9.9932,12.9912 -21.8252,23.504 -35.4959,31.3387 -13.6707,7.83467 -32.1781,11.6721 -55.6821,11.6721 -23.9837,0 -44.0101,-5.19647 -59.9992,-15.3496 -15.8292,-10.353 -23.8238,-23.1842 -23.8238,-38.4938 0,-13.9905 5.83603,-25.5027 17.5081,-34.3367 11.832,-8.99388 27.5013,-16.5088 47.3278,-22.3448 19.8265,-5.83603 47.1679,-12.9912 81.9843,-21.5054 41.3319,-9.9932 75.1889,-22.1449 101.331,-36.1354 26.1822,-14.0305 46.0087,-30.4993 59.5195,-49.6862 13.5108,-18.9871 20.3062,-40.6524 20.3062,-65.1557z"
   id="glyph28" />
   <glyph
   unicode="Y"
   horiz-adv-x="625"
   d="M237.998 76.3481l0 226.966 -174.841 270.856c-15.3096,24.5033 -26.1422,43.4904 -32.4979,57.1611 -6.31571,13.6707 -9.47356,25.5027 -9.47356,35.6558 0,16.5088 6.4756,30.859 19.3069,43.0108 12.8313,11.9918 28.6605,17.9878 47.6876,17.9878 19.8265,0 34.8163,-5.63617 45.1693,-16.8286 10.1531,-11.1524 25.5027,-33.4972 45.9687,-66.9944l133.829 -217.172 135.348 217.172c7.99456,13.3509 14.8299,24.5033 20.5061,33.6571 5.51625,9.03386 11.5122,17.5081 18.3475,25.5027 6.63549,7.99456 13.9905,14.1904 22.1449,18.3475 8.15445,4.15717 17.9878,6.31571 29.8597,6.31571 18.1477,0 33.2974,-5.99592 45.4891,-17.8279 12.3116,-11.832 18.3076,-25.6625 18.3076,-41.172 0,-12.6714 -2.99796,-25.5027 -9.15378,-38.1341 -6.15581,-12.6714 -16.8286,-30.1795 -31.8184,-52.6842l-179.158 -274.853 0 -226.966c0,-29.6998 -6.83535,-51.6849 -20.5061,-66.3549 -13.6707,-14.67 -31.1788,-21.9851 -52.1645,-21.9851 -21.5054,0 -39.0135,7.15513 -52.3644,21.6653 -13.3109,14.5101 -19.9864,36.6551 -19.9864,66.6747z"
   id="glyph30" />
   <glyph
   unicode="V"
   horiz-adv-x="688"
   d="M184.163 632.837l162.001 -479.842 162.506 483.17c8.50036,25.5011 14.8262,43.1717 18.9995,53.0009 4.32706,10.0049 11.3338,18.8348 20.9983,26.8299 9.82922,8.00615 23.1618,12.0037 39.9978,12.0037 12.3332,0 23.8318,-3.16292 34.4956,-9.33502 10.5101,-6.16111 18.8348,-14.332 24.8421,-24.6664 5.99638,-10.1697 8.99456,-20.4931 8.99456,-31.0032 0,-6.99577 -0.999396,-14.8262 -2.99819,-23.1618 -1.83406,-8.17089 -4.33804,-16.3308 -7.17149,-24.3369 -2.99819,-7.99517 -5.99638,-16.1661 -8.82983,-24.6664l-173.17 -467.662c-6.32585,-17.8354 -12.4979,-34.8361 -18.6591,-51.0021 -6.17209,-16.0013 -13.3326,-30.1686 -21.5035,-42.5018 -7.99517,-12.1685 -18.8348,-22.1624 -32.3321,-29.9929 -13.4973,-7.84141 -30.0038,-11.6743 -49.4976,-11.6743 -19.6694,0 -36.165,3.83285 -49.6733,11.4985 -13.4973,7.67668 -24.326,17.6706 -32.6616,30.1686 -8.17089,12.6737 -15.5071,26.8409 -21.6682,42.8313 -6.17209,15.8366 -12.3332,32.8373 -18.5053,50.6727l-170.326 463.83c-2.99819,8.33562 -6.00736,16.6712 -9.00555,24.8311 -3.16292,8.17089 -5.6669,17.0007 -7.83043,26.3357 -2.16353,9.49975 -3.16292,17.5059 -3.16292,24.0075 0,16.4955 6.6663,31.6622 19.9989,45.3243 13.3326,13.6731 30.1686,20.5041 50.3322,20.5041 24.6664,0 42.1613,-7.50096 52.331,-22.6676 10.3344,-15.1667 20.8336,-39.3279 31.4974,-72.4946z"
   id="glyph32" />
   <glyph
   unicode="d"
   horiz-adv-x="625"
   d="M433.985 64.1564l0 13.191c-17.8279,-20.5061 -35.4959,-37.1747 -53.004,-50.006 -17.3082,-12.8313 -36.2953,-22.6646 -56.6415,-29.34 -20.3462,-6.67546 -42.4911,-9.9932 -66.6747,-9.9932 -31.8184,0 -61.3183,6.83535 -88.4998,20.3062 -27.1815,13.5108 -50.8454,32.6978 -70.6719,57.8407 -19.8265,25.023 -34.8163,54.5229 -45.1693,88.3399 -10.1531,33.857 -15.3096,70.5121 -15.3096,109.845 0,83.3433 20.3062,148.339 60.9985,194.828 40.6524,46.4884 94.3359,69.8325 160.651,69.8325 38.4938,0 70.8318,-6.67546 97.1739,-19.8265 26.3421,-13.191 52.1645,-33.4972 77.1475,-60.9985l0 196.826c0,27.3414 5.51625,48.0074 16.3489,61.9978 10.9925,13.9905 26.502,20.9857 46.6483,20.9857 20.1863,0 35.6957,-6.4756 46.6883,-19.3069 10.8326,-12.8313 16.3489,-31.8583 16.3489,-56.8413l0 -587.68c0,-25.3428 -5.83603,-44.4897 -17.5081,-57.1611 -11.832,-12.6714 -27.0216,-18.9871 -45.529,-18.9871 -18.1477,0 -33.2974,6.67546 -45.1293,19.8265 -11.8719,13.1511 -17.8678,32.0182 -17.8678,56.3217zm-261.982 195.667c0,-36.1754 5.67614,-66.8346 16.8286,-92.3372 11.1524,-25.3028 26.502,-44.3299 46.1686,-57.1611 19.5067,-12.8313 40.8522,-19.3069 63.8366,-19.3069 23.504,0 44.8495,6.15581 64.1564,18.3076 19.3468,12.1917 34.8563,30.859 46.3285,56.0019 11.5122,25.3428 17.3482,56.6815 17.3482,94.4957 0,35.336 -5.83603,65.8352 -17.3482,91.3379 -11.4722,25.6625 -27.1415,45.1693 -46.8082,58.6801 -19.6666,13.5108 -41.172,20.1463 -64.676,20.1463 -24.3434,0 -46.1686,-6.83535 -65.3556,-20.6659 -19.147,-13.8306 -33.9769,-33.6571 -44.6496,-59.4796 -10.5129,-26.0223 -15.8292,-56.0019 -15.8292,-90.0188z"
   id="glyph34" />
   <glyph
   unicode=" "
   horiz-adv-x="249"
   d=""
   id="glyph36" />
   <glyph
   unicode="u"
   horiz-adv-x="603"
   d="M414.838 63.1571l0 17.1883c-15.9891,-20.1863 -32.6578,-37.1747 -50.3258,-50.8454 -17.5081,-13.6707 -36.695,-23.8238 -57.5209,-30.4993 -20.8258,-6.67546 -44.4897,-9.9932 -71.1516,-9.9932 -32.338,0 -61.1584,6.67546 -86.6611,19.9864 -25.5027,13.3509 -45.3292,31.6585 -59.3596,55.1625 -16.4688,28.3407 -24.8231,68.9931 -24.8231,122.197l0 263.98c0,26.8218 5.99592,46.6483 17.9878,59.8393 12.0318,13.1511 28.0209,19.8265 47.8475,19.8265 19.9864,0 36.3353,-6.67546 48.6869,-19.9864 12.3116,-13.3509 18.4674,-33.1774 18.4674,-59.6794l0 -213.335c0,-30.819 2.67818,-56.8413 7.83467,-77.8271 5.19647,-20.9857 14.5101,-37.4945 28.0209,-49.3265 13.5108,-11.832 31.8184,-17.8279 55.0026,-17.8279 22.5047,0 43.6503,6.63549 63.4768,19.9864 19.8265,13.3109 34.3367,30.819 43.5304,52.3244 7.47492,18.8272 11.1524,60.1591 11.1524,123.996l0 162.01c0,26.502 6.15581,46.3285 18.5074,59.6794 12.4715,13.3109 28.6605,19.9864 48.487,19.9864 19.8265,0 35.8556,-6.67546 47.8475,-19.8265 12.1517,-13.191 18.1477,-33.0175 18.1477,-59.8393l0 -386.177c0,-25.3428 -5.83603,-44.3299 -17.3082,-57.1611 -11.6721,-12.6714 -26.502,-18.9871 -44.8495,-18.9871 -18.1876,0 -33.3373,6.67546 -45.1693,19.8265 -11.832,13.1511 -17.8279,31.6585 -17.8279,55.3224z"
   id="glyph38" />
   <glyph
   unicode="a"
   horiz-adv-x="594"
   d="M405.844 62.8373c-32.338,-25.023 -63.5168,-43.6903 -93.4964,-56.1618 -30.1795,-12.5115 -63.9965,-18.6673 -101.331,-18.6673 -34.1768,0 -64.3562,6.83535 -90.1787,20.3062 -25.8224,13.5108 -45.8488,31.6984 -59.8393,54.8427 -13.9905,23.1842 -20.9857,48.1672 -20.9857,75.1889 0,36.4952 11.4722,67.4741 34.6564,93.1367 23.1443,25.8624 55.0026,43.0108 95.4951,51.8447 8.35432,1.99864 29.34,6.35568 62.8373,13.191 33.4972,6.79538 62.3176,12.9912 86.1814,18.8272 23.8238,5.63617 49.8061,12.4715 77.8271,20.6659 -1.67886,35.1361 -8.6741,60.9985 -21.1856,77.3074 -12.6714,16.5088 -38.4938,24.6632 -77.987,24.6632 -33.857,0 -59.3197,-4.63685 -76.3481,-14.1504 -17.1483,-9.31367 -31.8184,-23.504 -43.9701,-42.4911 -12.1917,-18.8272 -20.8658,-31.1788 -25.8624,-37.3346 -5.15649,-5.99592 -15.9891,-8.99388 -32.4979,-8.99388 -14.9898,0 -27.981,4.83671 -38.8136,14.4702 -10.8326,9.51353 -16.3489,21.8651 -16.3489,36.8549 0,23.504 8.35432,46.3285 24.8231,68.5134 16.6687,22.1449 42.5311,40.3326 77.6672,54.6428 35.1761,14.3502 79.0263,21.5054 131.511,21.5054 58.5202,0 104.689,-6.99524 138.186,-20.8258 33.4972,-13.8306 57.1611,-35.6558 70.9917,-65.6753 13.8306,-29.9796 20.8258,-69.6726 20.8258,-119.159 0,-31.3387 -0.159891,-57.8407 -0.319783,-79.6658 -0.199864,-21.8252 -0.359755,-46.1686 -0.679538,-72.8305 0,-25.023 4.15717,-51.1652 12.5115,-78.3467 8.31435,-26.9817 12.3116,-44.4897 12.3116,-52.3244 0,-13.6707 -6.31571,-26.1822 -19.147,-37.3346 -12.9912,-11.1524 -27.5013,-16.8286 -43.8502,-16.8286 -13.6707,0 -27.1415,6.31571 -40.4925,19.147 -13.3509,12.8313 -27.5013,31.3387 -42.4911,55.6821zm-8.83399 193.149c-19.5067,-7.15513 -47.8475,-14.8299 -85.1821,-22.6646 -37.1747,-7.99456 -62.9972,-13.9905 -77.3474,-17.668 -14.3103,-3.83739 -27.981,-11.1524 -40.9721,-21.9851 -12.9912,-10.9925 -19.5067,-26.1822 -19.5067,-45.8488 0,-20.1463 7.67478,-37.3346 22.9844,-51.485 15.1897,-14.1504 35.1761,-21.3455 59.9992,-21.3455 26.3421,0 50.6855,5.83603 72.8305,17.3482 22.3448,11.6721 38.6937,26.502 49.1666,44.8095 12.0318,20.1863 18.0277,53.5236 18.0277,99.8521l0 18.9871z"
   id="glyph40" />
   <glyph
   unicode="r"
   horiz-adv-x="437"
   d="M200.983 180.317l0 -111.324c0,-26.9817 -6.31571,-47.1679 -18.9871,-60.6787 -12.6714,-13.4708 -28.6605,-20.3062 -48.1672,-20.3062 -19.147,0 -34.9762,6.83535 -47.3278,20.5061 -12.3516,13.6707 -18.5074,33.817 -18.5074,60.4789l0 371.188c0,59.7993 21.6653,89.8189 64.8359,89.8189 21.9851,0 38.0142,-6.99524 47.6876,-20.9857 9.83331,-14.0305 15.1497,-34.8563 16.149,-62.1977 15.8292,27.3414 32.1781,48.1672 49.0067,62.1977 16.8286,13.9905 39.1734,20.9857 67.1543,20.9857 28.0209,0 55.1625,-6.99524 81.5046,-20.9857 26.3421,-14.0305 39.4931,-32.6978 39.4931,-55.842 0,-16.3489 -5.47628,-29.6598 -16.8286,-40.3326 -11.1524,-10.6727 -23.3441,-15.8292 -36.3353,-15.8292 -4.83671,0 -16.6687,2.99796 -35.336,8.99388 -18.8272,5.99592 -35.336,8.99388 -49.6462,8.99388 -19.5067,0 -35.336,-5.15649 -47.8475,-15.3496 -12.3116,-10.313 -21.9851,-25.4627 -28.8204,-45.649 -6.83535,-20.1463 -11.5122,-44.17 -14.1904,-71.991 -2.47831,-27.8611 -3.83739,-61.6781 -3.83739,-101.691z"
   id="glyph42" />
   <glyph
   unicode="o"
   horiz-adv-x="603"
   d="M568.014 258.824c0,-39.8129 -6.19579,-76.3081 -18.5074,-109.805 -12.5115,-33.5372 -30.3394,-62.3576 -53.8434,-86.3413 -23.3441,-24.1836 -51.485,-42.4911 -83.9829,-55.3624 -32.4979,-12.8313 -69.1929,-19.3069 -109.845,-19.3069 -40.4925,0 -76.8278,6.4756 -109.006,19.5067 -32.1781,12.9912 -60.1591,31.6585 -83.823,56.0019 -23.504,24.1436 -41.4918,52.8041 -53.6835,85.8216 -12.1517,33.1774 -18.3076,69.6726 -18.3076,109.645 0,40.3326 6.15581,77.3474 18.4674,110.845 12.5115,33.4972 30.1795,62.1577 53.3637,86.0215 23.1443,23.6639 51.1652,41.9715 83.9829,54.8027 32.8577,12.8313 69.153,19.3468 109.006,19.3468 40.3326,0 76.9876,-6.51557 109.845,-19.5067 32.8177,-12.9912 60.9985,-31.6585 84.5025,-55.842 23.504,-23.9837 41.3319,-52.6442 53.4836,-85.9815 12.1517,-33.1774 18.3475,-69.8325 18.3475,-109.845zm-134.029 0c0,54.3231 -11.9918,96.4944 -35.8156,126.834 -23.9837,30.1795 -56.0019,45.3292 -96.3345,45.3292 -26.1822,0 -49.0067,-6.63549 -68.8332,-20.1463 -19.8265,-13.5108 -35.1761,-33.4972 -45.8488,-59.8393 -10.8326,-26.3421 -16.149,-57.1611 -16.149,-92.1773 0,-34.8163 5.31638,-65.3156 15.8292,-91.3379 10.6727,-25.9823 25.6625,-45.9687 45.3292,-59.8393 19.6666,-13.8306 43.0108,-20.6659 69.6726,-20.6659 40.3326,0 72.3508,15.1897 96.3345,45.6889 23.8238,30.3394 35.8156,72.5107 35.8156,126.154z"
   id="glyph44" />
   <glyph
   unicode="l"
   horiz-adv-x="271"
   d="M68.9931 68.9931l0 578.007c0,26.6619 5.99592,46.8481 17.8279,60.5188 11.832,13.6307 27.8611,20.4661 48.0074,20.4661 19.9864,0 36.3353,-6.83535 48.6869,-20.3062 12.3116,-13.5108 18.4674,-33.6971 18.4674,-60.6787l0 -578.007c0,-26.9817 -6.31571,-47.1679 -18.8272,-60.6787 -12.4715,-13.4708 -28.6605,-20.3062 -48.3271,-20.3062 -19.5067,0 -35.336,6.99524 -47.4877,20.9857 -12.1917,13.9905 -18.3475,34.0169 -18.3475,59.9992z"
   id="glyph46" />
   <glyph
   unicode="i"
   horiz-adv-x="271"
   d="M201.999 454.33l0 -385.328c0,-26.6652 -6.33683,-46.8398 -18.9995,-60.5019 -12.6627,-13.6621 -28.664,-20.5041 -48.1687,-20.5041 -19.4937,0 -35.3303,7.00675 -47.4988,20.9983 -12.1685,14.0025 -18.3296,34.0014 -18.3296,60.0077l0 381.33c0,26.5005 6.16111,46.3346 18.3296,59.6672 12.1685,13.3326 28.0051,19.9989 47.4988,19.9989 19.5047,0 35.506,-6.6663 48.1687,-19.9989 12.6627,-13.3326 18.9995,-32.0026 18.9995,-55.6697zm-65.8283 137.675c-18.5053,0 -34.3419,5.6669 -47.4988,16.9897 -13.1679,11.3338 -19.6694,27.5108 -19.6694,48.3334 0,18.67 6.6663,34.1771 20.1636,46.3346 13.4973,12.1685 29.1692,18.3406 47.0046,18.3406 17.3302,0 32.4968,-5.50217 45.8294,-16.5065 13.3326,-11.1581 19.9989,-27.1594 19.9989,-48.1687 0,-20.4931 -6.50156,-36.4944 -19.4937,-47.993 -13.0031,-11.4985 -28.3345,-17.3302 -46.3346,-17.3302z"
   id="glyph48" />
  </font>
</defs>
</svg>
