<?xml version="1.0" encoding="UTF-8" standalone="no"?>
<!-- Creator: CorelDRAW X8 -->

<svg
   xmlns:dc="http://purl.org/dc/elements/1.1/"
   xmlns:cc="http://creativecommons.org/ns#"
   xmlns:rdf="http://www.w3.org/1999/02/22-rdf-syntax-ns#"
   xmlns:svg="http://www.w3.org/2000/svg"
   xmlns="http://www.w3.org/2000/svg"
   xmlns:sodipodi="http://sodipodi.sourceforge.net/DTD/sodipodi-0.dtd"
   xmlns:inkscape="http://www.inkscape.org/namespaces/inkscape"
   xml:space="preserve"
   width="36"
   height="36"
   version="1.1"
   style="clip-rule:evenodd;fill-rule:evenodd;image-rendering:optimizeQuality;shape-rendering:geometricPrecision;text-rendering:geometricPrecision"
   viewBox="0 0 952.49998 952.50001"
   id="svg27"
   sodipodi:docname="promo.svg"
   inkscape:version="0.92.4 (5da689c313, 2019-01-14)"><metadata
   id="metadata31"><rdf:RDF><cc:Work
       rdf:about=""><dc:format>image/svg+xml</dc:format><dc:type
         rdf:resource="http://purl.org/dc/dcmitype/StillImage" /><dc:title></dc:title></cc:Work></rdf:RDF></metadata><sodipodi:namedview
   pagecolor="#ffffff"
   bordercolor="#666666"
   borderopacity="1"
   objecttolerance="10"
   gridtolerance="10"
   guidetolerance="10"
   inkscape:pageopacity="0"
   inkscape:pageshadow="2"
   inkscape:window-width="640"
   inkscape:window-height="480"
   id="namedview29"
   showgrid="false"
   units="px"
   inkscape:zoom="3.4572222"
   inkscape:cx="4.924171"
   inkscape:cy="15.190548"
   inkscape:window-x="0"
   inkscape:window-y="0"
   inkscape:window-maximized="0"
   inkscape:current-layer="svg27" />
 <defs
   id="defs4">
  <style
   type="text/css"
   id="style2">
   <![CDATA[
    .str0 {stroke:#2B2A29;stroke-width:20}
    .fil0 {fill:#FEFEFE}
    .fil1 {fill:#E31E24}
   ]]>
  </style>
 </defs>
 <g
   id="Warstwa_x0020_1"
   transform="matrix(0.2449691,0,0,0.2271593,-820.00799,-255.83554)">
  <metadata
   id="CorelCorpID_0Corel-Layer" />
  <polygon
   class="fil0 str0"
   points="5291,1492 6093,1945 6894,2398 6894,3304 6894,4210 6093,4663 5291,5116 4489,4663 3688,4210 3688,3304 3688,2398 4489,1945 "
   id="polygon7"
   style="fill:#fefefe;stroke:#2b2a29;stroke-width:20" />
  <g
   id="_1916995066448">
   <g
   id="g23">
    <path
   class="fil1"
   d="m 4571,2890 -2,536 c 3,11 79,24 105,31 38,10 71,20 104,32 145,50 330,143 474,210 21,10 78,39 96,42 V 2581 c -18,4 -71,31 -90,40 l -279,130 c -132,62 -250,103 -408,139 z"
   id="path9"
   inkscape:connector-curvature="0"
   style="fill:#e31e24" />
    <path
   class="fil1"
   d="m 5412,2549 -1,1224 c 29,13 134,67 157,70 l 1,-21 c 4,-437 0,-903 0,-1343 -26,3 -126,56 -157,70 z"
   id="path11"
   inkscape:connector-curvature="0"
   style="fill:#e31e24" />
    <path
   class="fil1"
   d="m 4506,3418 v -514 c -32,-2 -105,13 -144,15 -92,6 -210,-17 -236,81 -6,23 -6,296 -1,318 23,102 149,79 233,84 40,3 114,18 148,16 z"
   id="path13"
   inkscape:connector-curvature="0"
   style="fill:#e31e24" />
    <path
   class="fil1"
   d="m 5970,2397 c -19,7 -31,30 -13,50 10,12 38,21 52,27 251,118 429,399 425,700 -4,190 -80,363 -171,469 -77,90 -157,159 -269,212 -18,8 -41,14 -45,34 -4,26 15,42 41,36 49,-12 167,-92 198,-118 190,-161 311,-379 308,-659 -2,-270 -132,-493 -320,-642 -24,-20 -171,-121 -206,-109 z"
   id="path15"
   inkscape:connector-curvature="0"
   style="fill:#e31e24" />
    <path
   class="fil1"
   d="m 4302,3988 c 48,0 92,-31 120,-52 93,-73 84,-176 84,-272 0,-38 6,-152 -2,-178 -31,-15 -161,-27 -201,-23 z"
   id="path17"
   inkscape:connector-curvature="0"
   style="fill:#e31e24" />
    <path
   class="fil1"
   d="m 5850,2653 c -60,36 56,79 85,99 316,219 273,658 -22,833 -14,8 -58,27 -68,37 -23,22 -18,118 170,-33 230,-185 268,-544 89,-764 -35,-43 -65,-74 -109,-108 -19,-14 -115,-82 -145,-64 z"
   id="path19"
   inkscape:connector-curvature="0"
   style="fill:#e31e24" />
    <path
   class="fil1"
   d="m 5631,3391 c 54,1 119,-48 139,-73 76,-95 81,-223 -1,-313 -20,-22 -29,-32 -57,-48 -20,-11 -54,-26 -79,-27 z"
   id="path21"
   inkscape:connector-curvature="0"
   style="fill:#e31e24" />
   </g>
  </g>
 </g>
</svg>