<?xml version="1.0" encoding="UTF-8" standalone="no"?>
<!-- Creator: CorelDRAW X8 -->

<svg
   xmlns:dc="http://purl.org/dc/elements/1.1/"
   xmlns:cc="http://creativecommons.org/ns#"
   xmlns:rdf="http://www.w3.org/1999/02/22-rdf-syntax-ns#"
   xmlns:svg="http://www.w3.org/2000/svg"
   xmlns="http://www.w3.org/2000/svg"
   xmlns:sodipodi="http://sodipodi.sourceforge.net/DTD/sodipodi-0.dtd"
   xmlns:inkscape="http://www.inkscape.org/namespaces/inkscape"
   xml:space="preserve"
   width="36"
   height="36"
   version="1.1"
   style="clip-rule:evenodd;fill-rule:evenodd;image-rendering:optimizeQuality;shape-rendering:geometricPrecision;text-rendering:geometricPrecision"
   viewBox="0 0 952.49998 952.50001"
   id="svg19"
   sodipodi:docname="visual.svg"
   inkscape:version="0.92.4 (5da689c313, 2019-01-14)"><metadata
   id="metadata23"><rdf:RDF><cc:Work
       rdf:about=""><dc:format>image/svg+xml</dc:format><dc:type
         rdf:resource="http://purl.org/dc/dcmitype/StillImage" /><dc:title></dc:title></cc:Work></rdf:RDF></metadata><sodipodi:namedview
   pagecolor="#ffffff"
   bordercolor="#666666"
   borderopacity="1"
   objecttolerance="10"
   gridtolerance="10"
   guidetolerance="10"
   inkscape:pageopacity="0"
   inkscape:pageshadow="2"
   inkscape:window-width="640"
   inkscape:window-height="480"
   id="namedview21"
   showgrid="false"
   units="px"
   inkscape:zoom="6.9144444"
   inkscape:cx="21.254025"
   inkscape:cy="19.936421"
   inkscape:window-x="0"
   inkscape:window-y="0"
   inkscape:window-maximized="0"
   inkscape:current-layer="svg19" />
 <defs
   id="defs4">
  <style
   type="text/css"
   id="style2">
   <![CDATA[
    .str0 {stroke:#2B2A29;stroke-width:20}
    .fil0 {fill:#FEFEFE}
    .fil1 {fill:#E31E24}
   ]]>
  </style>
 </defs>
 <g
   id="Warstwa_x0020_1"
   transform="matrix(0.19986264,0,0,0.17625554,-601.37469,-94.172727)">
  <metadata
   id="CorelCorpID_0Corel-Layer" />
  <polygon
   class="fil0 str0"
   points="7626,3310 7626,4558 6522,5182 5419,5806 4315,5182 3211,4558 3211,3310 3211,2063 4315,1439 5419,815 6522,1439 7626,2063 "
   id="polygon7"
   style="fill:#fefefe;stroke:#2b2a29;stroke-width:20" />
  <g
   id="_1916989021696">
   <path
   class="fil1"
   d="m 5584,2424 c 31,-66 95,-135 121,-205 -414,2 -830,-5 -1244,0 -712,9 -634,-123 -634,603 0,412 3,826 0,1238 -1,105 5,185 106,200 66,10 2510,4 2784,3 226,-1 175,-132 176,-443 0,-412 0,-825 0,-1238 0,-344 11,-360 -256,-363 -124,-1 -234,-20 -279,34 -43,52 -95,111 -134,171 h 464 l -5,1482 H 4031 l 2,-1482 z"
   id="path9"
   inkscape:connector-curvature="0"
   style="fill:#e31e24" />
   <path
   class="fil1"
   d="m 6108,1912 c 54,-54 80,-73 178,-75 -16,21 -40,34 -67,58 -42,36 -31,38 -61,70 -27,-13 -35,-21 -50,-53 z m 112,-110 c -148,49 -215,205 -334,369 -101,139 -198,279 -292,416 l -442,619 c -14,45 9,44 76,98 70,57 49,28 182,-112 l 165,-185 c 28,-33 59,-58 88,-92 31,-36 44,-50 81,-87 l 170,-190 c 28,-33 59,-59 88,-92 l 339,-369 c 48,-57 119,-133 99,-253 -15,-99 -108,-159 -220,-122 z"
   id="path11"
   inkscape:connector-curvature="0"
   style="fill:#e31e24" />
   <path
   class="fil1"
   d="m 5050,4366 c -18,32 -16,57 -22,100 -28,192 -108,131 -131,226 l 926,-3 c -10,-67 -76,-68 -109,-135 -27,-55 -18,-141 -45,-189 z"
   id="path13"
   inkscape:connector-curvature="0"
   style="fill:#e31e24" />
   <path
   class="fil1"
   d="m 4611,3608 c 165,31 537,29 624,-82 79,-99 -68,-244 -205,-244 -174,1 -136,202 -223,274 -48,40 -144,19 -196,52 z"
   id="path15"
   inkscape:connector-curvature="0"
   style="fill:#e31e24" />
  </g>
 </g>
</svg>