<?xml version="1.0" encoding="UTF-8"?>
<!DOCTYPE svg PUBLIC "-//W3C//DTD SVG 1.1//EN" "http://www.w3.org/Graphics/SVG/1.1/DTD/svg11.dtd">
<!-- Creator: CorelDRAW X8 -->
<svg xmlns="http://www.w3.org/2000/svg" xml:space="preserve" width="105mm" height="70mm" version="1.1" style="shape-rendering:geometricPrecision; text-rendering:geometricPrecision; image-rendering:optimizeQuality; fill-rule:evenodd; clip-rule:evenodd"
viewBox="0 0 10500 7000"
 xmlns:xlink="http://www.w3.org/1999/xlink">
 <defs>
  <style type="text/css">
   <![CDATA[
    .str0 {stroke:#2B2A29;stroke-width:20}
    .fil0 {fill:#FEFEFE}
    .fil1 {fill:#E31E24}
   ]]>
  </style>
 </defs>
 <g id="Warstwa_x0020_1">
  <metadata id="CorelCorpID_0Corel-Layer"/>
  <polygon class="fil0 str0" points="5630,1458 6575,1992 7520,2526 7520,3594 7520,4662 6575,5196 5630,5730 4686,5196 3741,4662 3741,3594 3741,2526 4686,1992 "/>
  <path class="fil1" d="M4399 4631l2657 0 0 -88 -226 1 -1 -1364c-11,2 -218,114 -229,124 -7,15 8,1199 -3,1240l-101 0 -2 -1183 -229 124 -1 1059 -103 0 -2 -1000c-19,2 -38,20 -57,29 -53,26 -129,73 -172,92 0,44 4,851 -2,879l-102 0 -2 -810 -85 -92c-11,-15 -18,-17 -29,-30l-115 -127 -1 1059 -103 0c-5,-40 -2,-934 -2,-1046 0,-44 8,-111 -7,-143 -24,0 -188,66 -222,78 1,44 5,1084 -2,1111l-101 0 -2 -1071 -229 84 -1 987 -102 0c-8,-25 -4,-913 -3,-945 -30,3 -191,68 -230,82 1,37 5,837 -2,863l-101 0 -2 -996 989 -366c8,3 17,11 24,18 9,9 12,17 21,26 8,10 13,12 21,21 34,37 71,86 107,120l147 165c11,9 14,14 23,23 81,-39 161,-92 244,-132 150,-74 344,-192 497,-270 82,-42 165,-95 247,-134 21,28 38,72 60,99 2,-2 150,-250 157,-272l-314 1c12,31 40,70 58,103 -1,1 -2,1 -3,2 0,2 -2,2 -3,2l-929 505c-14,-13 -19,-27 -38,-44l-61 -69c-9,-10 -13,-11 -22,-21l-41 -47c-23,-30 -25,-25 -40,-44l-62 -69c-10,-9 -13,-16 -21,-26 -12,-16 -25,-18 -40,-48 -29,4 -475,173 -512,187 -84,31 -168,62 -252,93 -42,16 -84,31 -126,47 -36,14 -95,39 -131,48l0 -1262 -87 0 1 2427z"/>
 </g>
</svg>
