<?xml version="1.0" encoding="UTF-8"?>
<!DOCTYPE svg PUBLIC "-//W3C//DTD SVG 1.1//EN" "http://www.w3.org/Graphics/SVG/1.1/DTD/svg11.dtd">
<!-- Creator: CorelDRAW X8 -->
<svg xmlns="http://www.w3.org/2000/svg" xml:space="preserve" width="105mm" height="70mm" version="1.1" style="shape-rendering:geometricPrecision; text-rendering:geometricPrecision; image-rendering:optimizeQuality; fill-rule:evenodd; clip-rule:evenodd"
viewBox="0 0 10500 7000"
 xmlns:xlink="http://www.w3.org/1999/xlink">
 <defs>
  <style type="text/css">
   <![CDATA[
    .fil9 {fill:#E31E24}
    .fil3 {fill:#2B2B2B}
    .fil1 {fill:#2C2C2C}
    .fil4 {fill:#E2E2E2}
    .fil5 {fill:#F53433}
    .fil7 {fill:#F9F9F9}
    .fil8 {fill:#FAFAFA}
    .fil6 {fill:#FBFBFB}
    .fil0 {fill:#FCFCFC}
    .fil2 {fill:#FDFDFD}
   ]]>
  </style>
 </defs>
 <g id="Warstwa_x0020_1">
  <metadata id="CorelCorpID_0Corel-Layer"/>
  <g id="_1917066169648">
   <path class="fil0" d="M7692 6057c-47,95 -196,30 -148,-76 41,-92 203,-32 148,76zm-133 -167c-44,-17 -34,-51 -77,-7 -43,43 -9,34 6,79 -53,39 -52,-18 -59,49 -8,76 12,33 56,59 3,58 -13,25 -21,58l39 45 59 -24c39,53 -5,58 83,60l22 -56c59,8 34,52 86,0 51,-51 6,-24 -1,-84l58 -16c-3,-96 -7,-53 -62,-89l29 -56c-78,-77 -37,-25 -109,-22 -27,-57 25,-51 -47,-57 -71,-6 -23,16 -62,61z"/>
   <path class="fil0" d="M8142 5883l398 -1 1 274 -393 1 -6 -274zm-44 312c45,12 438,22 487,-6 8,-63 8,-233 4,-299 -5,-80 -54,-54 -246,-54 -199,0 -243,-27 -248,53 -5,78 -3,229 3,306z"/>
   <path class="fil0" d="M3060 6124c52,2 103,-38 144,-65l19 66c51,-2 105,-44 147,-70 40,50 -12,44 45,72 30,-36 30,-179 1,-216 -60,28 -12,15 -39,75 -56,-24 -92,-67 -153,-71l-13 64c-57,-25 -93,-69 -147,-60l-4 205z"/>
   <path class="fil0" d="M2680 6125c30,-41 27,-169 1,-212 -53,14 -34,43 -34,108 0,57 -18,93 33,104z"/>
   <polygon class="fil1" points="8148,6157 8541,6156 8540,5882 8142,5883 "/>
   <path class="fil1" d="M7692 6057c55,-108 -107,-168 -148,-76 -48,106 101,171 148,76z"/>
   <path class="fil2" d="M2152 6147c47,5 202,-84 229,-126 -20,-45 -184,-134 -231,-128 -13,56 -15,201 2,254z"/>
   <path class="fil2" d="M3710 5962l-3 119c48,7 65,-3 105,18 45,22 36,37 88,41 8,-58 13,-190 -5,-243 -37,5 -45,23 -78,40 -54,27 -61,5 -107,25z"/>
   <path class="fil3" d="M1662 6426l3706 10c3,-4 6,-8 10,-13l13 14 3687 10 0 -883 -5881 1c-163,132 -104,-1 -303,1 -138,1 -277,0 -415,0 -272,0 -545,0 -817,0l0 860zm6436 -231c-6,-77 -8,-228 -3,-306 5,-80 49,-53 248,-53 192,0 241,-26 246,54 4,66 4,236 -4,299 -49,28 -442,18 -487,6zm-5323 -69c-47,-19 -31,-49 -31,-105 0,-64 -17,-88 32,-109 29,42 32,174 -1,214zm-95 -1c-51,-11 -33,-47 -33,-104 0,-65 -19,-94 34,-108 26,43 29,171 -1,212zm1996 -56c0,-27 14,-26 22,-2 8,23 -22,17 -22,2zm-966 -107c46,-20 53,2 107,-25 33,-17 41,-35 78,-40 18,53 13,185 5,243 -52,-4 -43,-19 -88,-41 -40,-21 -57,-11 -105,-18l3 -119zm1056 116c-64,-51 -59,-159 41,-146 48,43 49,92 9,143l-50 3zm-1702 -159c54,-9 90,35 147,60l13 -64c61,4 97,47 153,71 27,-60 -21,-47 39,-75 29,37 29,180 -1,216 -57,-28 -5,-22 -45,-72 -42,26 -96,68 -147,70l-19 -66c-41,27 -92,67 -144,65l4 -205zm1825 156c-39,-47 -47,-149 31,-147 76,1 68,105 31,151l-62 -4zm-263 -2c-115,32 -102,-110 -62,-136 65,-42 128,58 62,136zm-145 6c-119,2 -86,-136 -31,-149 71,-17 104,92 31,149zm-2329 68c-17,-53 -15,-198 -2,-254 47,-6 211,83 231,128 -27,42 -182,131 -229,126zm3213 -164c-20,12 -3,15 -24,-5l24 5zm-152 -4c-2,-94 89,-31 89,-30l4 116c-39,24 -59,25 -97,-1 -20,-73 5,-8 4,-85zm-515 3c5,14 -19,15 -19,8 1,-52 15,-17 19,-8zm-740 38l-29 -55c86,-10 84,117 -5,108l34 -53zm1095 73c8,-46 35,-148 67,-176 -1,47 -29,158 -67,176zm494 -158c37,-10 44,-9 78,4 -65,30 -39,-17 -74,36 49,19 99,16 74,89 -38,25 -59,26 -97,1 42,-24 84,27 84,-47 -51,-26 -29,-4 -86,-13l21 -70zm-77 17l-74 -4c11,-25 102,-36 100,25 -1,43 -51,53 -73,82l71 14c-37,18 -53,13 -98,8 3,-90 85,-40 74,-125zm2175 257c-88,-2 -44,-7 -83,-60l-59 24 -39 -45c8,-33 24,0 21,-58 -44,-26 -64,17 -56,-59 7,-67 6,-10 59,-49 -15,-45 -49,-36 -6,-79 43,-44 33,-10 77,7 39,-45 -9,-67 62,-61 72,6 20,0 47,57 72,-3 31,-55 109,22l-29 56c55,36 59,-7 62,89l-58 16c7,60 52,33 1,84 -52,52 -27,8 -86,0l-22 56zm-3690 -76c9,-49 64,-36 66,-112 2,-83 -53,-64 -67,-114 133,-32 131,249 1,226z"/>
   <polygon class="fil4" points="3197,5565 9078,5564 9078,5442 3197,5440 "/>
   <path class="fil5" d="M1662 5442l0 124c272,0 545,0 817,0 138,0 277,1 415,0 199,-2 140,131 303,-1l0 -125c-47,-28 -63,-73 -140,-49 -88,27 -15,52 -151,51l-1244 0z"/>
   <path class="fil6" d="M2775 6126c33,-40 30,-172 1,-214 -49,21 -32,45 -32,109 0,56 -16,86 31,105z"/>
   <path class="fil7" d="M3955 6133c130,23 132,-258 -1,-226 14,50 69,31 67,114 -2,76 -57,63 -66,112z"/>
   <path class="fil8" d="M3958 6020l-34 53c89,9 91,-118 5,-108l29 55z"/>
   <rect class="fil3" x="4273" y="5799" width="1961" height="574"/>
  </g>
  <rect class="fil9" x="1156" y="664" width="8047" height="3971"/>
  <rect class="fil1" x="1679" y="1244" width="7267" height="3952"/>
 </g>
</svg>
